<?xml version="1.0" encoding="UTF-8" standalone="no"?>
<svg
   xmlns:dc="http://purl.org/dc/elements/1.1/"
   xmlns:cc="http://creativecommons.org/ns#"
   xmlns:rdf="http://www.w3.org/1999/02/22-rdf-syntax-ns#"
   xmlns:svg="http://www.w3.org/2000/svg"
   xmlns="http://www.w3.org/2000/svg"
   xmlns:sodipodi="http://sodipodi.sourceforge.net/DTD/sodipodi-0.dtd"
   xmlns:inkscape="http://www.inkscape.org/namespaces/inkscape"
   version="1.1"
   width="420mm"
   height="297mm"
   viewBox="0 0 420 297"
   id="svg2"
   inkscape:version="0.91 r13725"
   sodipodi:docname="ACME_AriaG25_SMT_Tray_5x4__cut_bottom_final.svg">
  <sodipodi:namedview
     pagecolor="#ffffff"
     bordercolor="#666666"
     borderopacity="1"
     objecttolerance="10"
     gridtolerance="10"
     guidetolerance="10"
     inkscape:pageopacity="0"
     inkscape:pageshadow="2"
     inkscape:window-width="1920"
     inkscape:window-height="1016"
     id="namedview356"
     showgrid="true"
     inkscape:zoom="0.75864021"
     inkscape:cx="811.90229"
     inkscape:cy="489.61636"
     inkscape:window-x="0"
     inkscape:window-y="0"
     inkscape:window-maximized="1"
     inkscape:current-layer="layer3"
     inkscape:document-units="mm">
    <inkscape:grid
       type="xygrid"
       id="grid6554"
       units="mm"
       spacingx="0.1"
       spacingy="0.1"
       empspacing="10" />
  </sodipodi:namedview>
  <metadata
     id="metadata358">
    <rdf:RDF>
      <cc:Work
         rdf:about="">
        <dc:format>image/svg+xml</dc:format>
        <dc:type
           rdf:resource="http://purl.org/dc/dcmitype/StillImage" />
        <dc:title></dc:title>
      </cc:Work>
    </rdf:RDF>
  </metadata>
  <!-- Working space 0 0 420 297 -->
  <defs
     id="defs4">
    <radialGradient
       id="radialGradient3661"
       gradientUnits="userSpaceOnUse"
       cy="29.149"
       cx="282.65"
       gradientTransform="matrix(.14777 .23089 -.24680 .15795 -26.318 -62.617)"
       r="19.571">
      <stop
         stop-color="#71b2f8"
         offset="0"
         id="stop7" />
      <stop
         stop-color="#002795"
         offset="1"
         id="stop9" />
    </radialGradient>
    <radialGradient
       id="radialGradient3817"
       gradientUnits="userSpaceOnUse"
       cy="33.9"
       cx="270.58"
       gradientTransform="matrix(.26631 .065024 -.17931 .73438 -60.668 -36.938)"
       r="19.571">
      <stop
         stop-color="#ff6d0f"
         offset="0"
         id="stop12" />
      <stop
         stop-color="#ff1000"
         offset="1"
         id="stop14" />
    </radialGradient>
  </defs>
  <!-- Set display:none to hide FreeCAD Logo -->
  <g
     inkscape:groupmode="layer"
     id="layer1"
     inkscape:label="Vorlage"
     style="display:none;opacity:0.14900004"
     sodipodi:insensitive="true">
    <g
       id="Ortho_0_001"
       transform="translate(230,150)">
      <path
         style="fill:none;stroke:#000000;stroke-width:0.34999999;stroke-linecap:butt;stroke-linejoin:miter"
         inkscape:connector-curvature="0"
         d="m 140,115 c 0,0 -280,0 -280,0 0,0 0,-230 0,-230 0,0 280,0 280,0 0,0 0,230 0,230"
         id="1" />
      <path
         style="fill:none;stroke:#000000;stroke-width:0.34999999;stroke-linecap:butt;stroke-linejoin:miter"
         inkscape:connector-curvature="0"
         id="path42"
         d="m -30.25,-96.116025 c 0.309401,-0.178633 0.690599,-0.178633 1,0 0.309401,0.178632 0.5,0.508759 0.5,0.866025 0,0.265216 -0.105357,0.51957 -0.292893,0.707107 -0.187537,0.187536 -0.441891,0.292893 -0.707107,0.292893 0,0 0,38.5 0,38.5 0.265216,0 0.51957,0.105357 0.707107,0.292893 0.187536,0.187537 0.292893,0.441891 0.292893,0.707107 0,0.357266 -0.190599,0.687393 -0.5,0.866025 -0.309401,0.178633 -0.690599,0.178633 -1,0 -0.309401,-0.178632 -0.5,-0.508759 -0.5,-0.866025 0,0 -38.5,0 -38.5,0 0,0.404462 -0.243642,0.769099 -0.617317,0.92388 -0.373674,0.154781 -0.803792,0.06923 -1.08979,-0.216773 -0.285998,-0.285998 -0.371554,-0.716116 -0.216773,-1.08979 0.154781,-0.373675 0.519418,-0.617317 0.92388,-0.617317 0,0 0,-38.5 0,-38.5 -0.404462,0 -0.769099,-0.243642 -0.92388,-0.617317 -0.154781,-0.373674 -0.06923,-0.803792 0.216773,-1.08979 0.285998,-0.285998 0.716116,-0.371554 1.08979,-0.216773 0.373675,0.154781 0.617317,0.519418 0.617317,0.92388 0,0 38.5,0 38.5,0 0,0 -38.5,0 -38.5,0 0,-0.404462 -0.243642,-0.769099 -0.617317,-0.92388 -0.373674,-0.154781 -0.803792,-0.06923 -1.08979,0.216773 -0.285998,0.285998 -0.371554,0.716116 -0.216773,1.08979 0.154781,0.373675 0.519418,0.617317 0.92388,0.617317 0,0 0,38.5 0,38.5 -0.404462,0 -0.769099,0.243642 -0.92388,0.617317 -0.154781,0.373674 -0.06923,0.803792 0.216773,1.08979 0.285998,0.285998 0.716116,0.371554 1.08979,0.216773 0.373675,-0.154781 0.617317,-0.519418 0.617317,-0.92388 0,0 38.5,0 38.5,0 0,0.357266 0.190599,0.687393 0.5,0.866025 0.309401,0.178633 0.690599,0.178633 1,0 0.309401,-0.178632 0.5,-0.508759 0.5,-0.866025 0,-0.265216 -0.105357,-0.51957 -0.292893,-0.707107 C -29.23043,-55.644643 -29.484784,-55.75 -29.75,-55.75 c 0,0 0,-38.5 0,-38.5 0.265216,0 0.51957,-0.105357 0.707107,-0.292893 0.187536,-0.187537 0.292893,-0.441891 0.292893,-0.707107 0,-0.357266 -0.190599,-0.687393 -0.5,-0.866025 -0.309401,-0.178633 -0.690599,-0.178633 -1,0 -0.309401,0.178632 -0.5,0.508759 -0.5,0.866025" />
      <path
         style="fill:none;stroke:#000000;stroke-width:0.34999999;stroke-linecap:butt;stroke-linejoin:miter"
         inkscape:connector-curvature="0"
         id="path49"
         d="m 19.75,-96.116025 c 0.309401,-0.178633 0.690599,-0.178633 1,0 0.309401,0.178632 0.5,0.508759 0.5,0.866025 0,0.265216 -0.105357,0.51957 -0.292893,0.707107 C 20.76957,-94.355357 20.515216,-94.25 20.25,-94.25 c 0,0 0,38.5 0,38.5 0.265216,0 0.51957,0.105357 0.707107,0.292893 0.187536,0.187537 0.292893,0.441891 0.292893,0.707107 0,0.357266 -0.190599,0.687393 -0.5,0.866025 -0.309401,0.178633 -0.690599,0.178633 -1,0 -0.309401,-0.178632 -0.5,-0.508759 -0.5,-0.866025 0,0 -38.5,0 -38.5,0 0,0.404462 -0.243642,0.769099 -0.617317,0.92388 -0.373674,0.154781 -0.803792,0.06923 -1.08979,-0.216773 -0.285998,-0.285998 -0.371554,-0.716116 -0.216773,-1.08979 0.154781,-0.373675 0.519418,-0.617317 0.92388,-0.617317 0,0 0,-38.5 0,-38.5 -0.404462,0 -0.769099,-0.243642 -0.92388,-0.617317 -0.154781,-0.373674 -0.06922,-0.803792 0.216773,-1.08979 0.285998,-0.285998 0.716116,-0.371554 1.08979,-0.216773 0.373675,0.154781 0.617317,0.519418 0.617317,0.92388 0,0 38.5,0 38.5,0 0,0 -38.5,0 -38.5,0 0,-0.404462 -0.243642,-0.769099 -0.617317,-0.92388 -0.373674,-0.154781 -0.803792,-0.06923 -1.08979,0.216773 -0.285998,0.285998 -0.371554,0.716116 -0.216773,1.08979 0.154781,0.373675 0.519418,0.617317 0.92388,0.617317 0,0 0,38.5 0,38.5 -0.404462,0 -0.769099,0.243642 -0.92388,0.617317 -0.154781,0.373674 -0.06922,0.803792 0.216773,1.08979 0.285998,0.285998 0.716116,0.371554 1.08979,0.216773 0.373675,-0.154781 0.617317,-0.519418 0.617317,-0.92388 0,0 38.5,0 38.5,0 0,0.357266 0.190599,0.687393 0.5,0.866025 0.309401,0.178633 0.690599,0.178633 1,0 0.309401,-0.178632 0.5,-0.508759 0.5,-0.866025 0,-0.265216 -0.105357,-0.51957 -0.292893,-0.707107 C 20.76957,-55.644643 20.515216,-55.75 20.25,-55.75 c 0,0 0,-38.5 0,-38.5 0.265216,0 0.51957,-0.105357 0.707107,-0.292893 C 21.144643,-94.73043 21.25,-94.984784 21.25,-95.25 c 0,-0.357266 -0.190599,-0.687393 -0.5,-0.866025 -0.309401,-0.178633 -0.690599,-0.178633 -1,0 -0.309401,0.178632 -0.5,0.508759 -0.5,0.866025" />
      <path
         style="fill:none;stroke:#000000;stroke-width:0.34999999;stroke-linecap:butt;stroke-linejoin:miter"
         inkscape:connector-curvature="0"
         d="m -29.25,-46.116025 c -0.309401,-0.178633 -0.690599,-0.178633 -1,0 -0.309401,0.178632 -0.5,0.508759 -0.5,0.866025 0,0 -38.5,0 -38.5,0 0,-0.404462 -0.243642,-0.769099 -0.617317,-0.92388 -0.373674,-0.154781 -0.803792,-0.06923 -1.08979,0.216773 -0.285998,0.285998 -0.371554,0.716116 -0.216773,1.08979 0.154781,0.373675 0.519418,0.617317 0.92388,0.617317 0,0 0,38.5 0,38.5 -0.404462,0 -0.769099,0.2436422 -0.92388,0.6173166 -0.154781,0.3736744 -0.06923,0.8037922 0.216773,1.0897902 0.285998,0.285998 0.716116,0.3715537 1.08979,0.2167727 C -69.493642,-3.9809015 -69.25,-4.3455378 -69.25,-4.75 c 0,0 38.5,0 38.5,0 0,0.3572656 0.190599,0.6873926 0.5,0.8660254 0.309401,0.1786328 0.690599,0.1786328 1,0 0.309401,-0.1786328 0.5,-0.5087598 0.5,-0.8660254 0,-0.2652165 -0.105357,-0.5195704 -0.292893,-0.7071068 C -29.23043,-5.6446432 -29.484784,-5.75 -29.75,-5.75 c 0,0 0,-38.5 0,-38.5 0.265216,0 0.51957,-0.105357 0.707107,-0.292893 0.187536,-0.187537 0.292893,-0.441891 0.292893,-0.707107 0,0.265216 -0.105357,0.51957 -0.292893,0.707107 -0.187537,0.187536 -0.441891,0.292893 -0.707107,0.292893 0,0 0,38.5 0,38.5 0.265216,0 0.51957,0.1053568 0.707107,0.2928932 0.187536,0.1875364 0.292893,0.4418903 0.292893,0.7071068 0,0.3572656 -0.190599,0.6873926 -0.5,0.8660254 -0.309401,0.1786328 -0.690599,0.1786328 -1,0 -0.309401,-0.1786328 -0.5,-0.5087598 -0.5,-0.8660254 0,0 -38.5,0 -38.5,0 0,0.4044622 -0.243642,0.7690985 -0.617317,0.9238795 -0.373674,0.154781 -0.803792,0.069225 -1.08979,-0.2167727 -0.285998,-0.285998 -0.371554,-0.7161158 -0.216773,-1.0897902 C -71.019099,-5.5063578 -70.654462,-5.75 -70.25,-5.75 c 0,0 0,-38.5 0,-38.5 -0.404462,0 -0.769099,-0.243642 -0.92388,-0.617317 -0.154781,-0.373674 -0.06923,-0.803792 0.216773,-1.08979 0.285998,-0.285998 0.716116,-0.371554 1.08979,-0.216773 0.373675,0.154781 0.617317,0.519418 0.617317,0.92388 0,0 38.5,0 38.5,0 0,-0.357266 0.190599,-0.687393 0.5,-0.866025 0.309401,-0.178633 0.690599,-0.178633 1,0 0.309401,0.178632 0.5,0.508759 0.5,0.866025"
         id="26" />
      <path
         style="fill:none;stroke:#000000;stroke-width:0.34999999;stroke-linecap:butt;stroke-linejoin:miter"
         inkscape:connector-curvature="0"
         d="M 70.957107,-5.4571068 C 70.76957,-5.6446432 70.515216,-5.75 70.25,-5.75 c 0,0 0,-38.5 0,-38.5 0.265216,0 0.51957,-0.105357 0.707107,-0.292893 C 71.144643,-44.73043 71.25,-44.984784 71.25,-45.25 c 0,-0.357266 -0.190599,-0.687393 -0.5,-0.866025 -0.309401,-0.178633 -0.690599,-0.178633 -1,0 -0.309401,0.178632 -0.5,0.508759 -0.5,0.866025 0,0 -38.5,0 -38.5,0 0,-0.404462 -0.243642,-0.769099 -0.617317,-0.92388 -0.373674,-0.154781 -0.803792,-0.06923 -1.08979,0.216773 -0.285998,0.285998 -0.371554,0.716116 -0.216773,1.08979 0.154781,0.373675 0.519418,0.617317 0.92388,0.617317 0,0 0,38.5 0,38.5 -0.404462,0 -0.769099,0.2436422 -0.92388,0.6173166 -0.154781,0.3736744 -0.06922,0.8037922 0.216773,1.0897902 0.285998,0.285998 0.716116,0.3715537 1.08979,0.2167727 C 30.506358,-3.9809015 30.75,-4.3455378 30.75,-4.75 c 0,0 38.5,0 38.5,0 0,0.3572656 0.190599,0.6873926 0.5,0.8660254 0.309401,0.1786328 0.690599,0.1786328 1,0 0.309401,-0.1786328 0.5,-0.5087598 0.5,-0.8660254 0,0.3572656 -0.190599,0.6873926 -0.5,0.8660254 -0.309401,0.1786328 -0.690599,0.1786328 -1,0 -0.309401,-0.1786328 -0.5,-0.5087598 -0.5,-0.8660254 0,0 -38.5,0 -38.5,0 0,0.4044622 -0.243642,0.7690985 -0.617317,0.9238795 -0.373674,0.154781 -0.803792,0.069225 -1.08979,-0.2167727 C 28.756895,-4.3288912 28.671339,-4.759009 28.82612,-5.1326834 28.980901,-5.5063578 29.345538,-5.75 29.75,-5.75 c 0,0 0,-38.5 0,-38.5 -0.404462,0 -0.769099,-0.243642 -0.92388,-0.617317 -0.154781,-0.373674 -0.06922,-0.803792 0.216773,-1.08979 0.285998,-0.285998 0.716116,-0.371554 1.08979,-0.216773 0.373675,0.154781 0.617317,0.519418 0.617317,0.92388 0,0 38.5,0 38.5,0 0,-0.357266 0.190599,-0.687393 0.5,-0.866025 0.309401,-0.178633 0.690599,-0.178633 1,0 0.309401,0.178632 0.5,0.508759 0.5,0.866025 0,0.265216 -0.105357,0.51957 -0.292893,0.707107 C 70.76957,-44.355357 70.515216,-44.25 70.25,-44.25 c 0,0 0,38.5 0,38.5 0.265216,0 0.51957,0.1053568 0.707107,0.2928932 C 71.144643,-5.2695704 71.25,-5.0152165 71.25,-4.75"
         id="39" />
      <path
         style="fill:none;stroke:#000000;stroke-width:0.34999999;stroke-linecap:butt;stroke-linejoin:miter"
         inkscape:connector-curvature="0"
         d="m 20.25,-44.25 c 0.265216,0 0.51957,-0.105357 0.707107,-0.292893 C 21.144643,-44.73043 21.25,-44.984784 21.25,-45.25 c 0,-0.357266 -0.190599,-0.687393 -0.5,-0.866025 -0.309401,-0.178633 -0.690599,-0.178633 -1,0 -0.309401,0.178632 -0.5,0.508759 -0.5,0.866025 0,0 -38.5,0 -38.5,0 0,-0.404462 -0.243642,-0.769099 -0.617317,-0.92388 -0.373674,-0.154781 -0.803792,-0.06923 -1.08979,0.216773 -0.285998,0.285998 -0.371554,0.716116 -0.216773,1.08979 0.154781,0.373675 0.519418,0.617317 0.92388,0.617317 0,0 0,38.5 0,38.5 -0.404462,0 -0.769099,0.2436422 -0.92388,0.6173166 -0.154781,0.3736744 -0.06922,0.8037922 0.216773,1.0897902 0.285998,0.285998 0.716116,0.3715537 1.08979,0.2167727 C -19.493642,-3.9809015 -19.25,-4.3455378 -19.25,-4.75 c 0,0 38.5,0 38.5,0 0,0.3572656 0.190599,0.6873926 0.5,0.8660254 0.309401,0.1786328 0.690599,0.1786328 1,0 0.309401,-0.1786328 0.5,-0.5087598 0.5,-0.8660254 0,-0.2652165 -0.105357,-0.5195704 -0.292893,-0.7071068 C 20.76957,-5.6446432 20.515216,-5.75 20.25,-5.75 c 0.265216,0 0.51957,0.1053568 0.707107,0.2928932 C 21.144643,-5.2695704 21.25,-5.0152165 21.25,-4.75 c 0,0.3572656 -0.190599,0.6873926 -0.5,0.8660254 -0.309401,0.1786328 -0.690599,0.1786328 -1,0 -0.309401,-0.1786328 -0.5,-0.5087598 -0.5,-0.8660254 0,0 -38.5,0 -38.5,0 0,0.4044622 -0.243642,0.7690985 -0.617317,0.9238795 -0.373674,0.154781 -0.803792,0.069225 -1.08979,-0.2167727 -0.285998,-0.285998 -0.371554,-0.7161158 -0.216773,-1.0897902 C -21.019099,-5.5063578 -20.654462,-5.75 -20.25,-5.75 c 0,0 0,-38.5 0,-38.5 -0.404462,0 -0.769099,-0.243642 -0.92388,-0.617317 -0.154781,-0.373674 -0.06922,-0.803792 0.216773,-1.08979 0.285998,-0.285998 0.716116,-0.371554 1.08979,-0.216773 0.373675,0.154781 0.617317,0.519418 0.617317,0.92388 0,0 38.5,0 38.5,0 0,-0.357266 0.190599,-0.687393 0.5,-0.866025 0.309401,-0.178633 0.690599,-0.178633 1,0 0.309401,0.178632 0.5,0.508759 0.5,0.866025 0,0.265216 -0.105357,0.51957 -0.292893,0.707107 C 20.76957,-44.355357 20.515216,-44.25 20.25,-44.25 c 0,0 0,38.5 0,38.5"
         id="51" />
      <path
         style="fill:none;stroke:#000000;stroke-width:0.34999999;stroke-linecap:butt;stroke-linejoin:miter"
         inkscape:connector-curvature="0"
         d="m 29.75,-55.75 c -0.404462,0 -0.769099,0.243642 -0.92388,0.617317 -0.154781,0.373674 -0.06922,0.803792 0.216773,1.08979 0.285998,0.285998 0.716116,0.371554 1.08979,0.216773 C 30.506358,-53.980901 30.75,-54.345538 30.75,-54.75 c 0,0 38.5,0 38.5,0 0,0.357266 0.190599,0.687393 0.5,0.866025 0.309401,0.178633 0.690599,0.178633 1,0 0.309401,-0.178632 0.5,-0.508759 0.5,-0.866025 0,-0.265216 -0.105357,-0.51957 -0.292893,-0.707107 C 70.76957,-55.644643 70.515216,-55.75 70.25,-55.75 c 0,0 0,-38.5 0,-38.5 0.265216,0 0.51957,-0.105357 0.707107,-0.292893 C 71.144643,-94.73043 71.25,-94.984784 71.25,-95.25 c 0,-0.357266 -0.190599,-0.687393 -0.5,-0.866025 -0.309401,-0.178633 -0.690599,-0.178633 -1,0 -0.309401,0.178632 -0.5,0.508759 -0.5,0.866025 0,0 -38.5,0 -38.5,0 0,-0.404462 -0.243642,-0.769099 -0.617317,-0.92388 -0.373674,-0.154781 -0.803792,-0.06923 -1.08979,0.216773 -0.285998,0.285998 -0.371554,0.716116 -0.216773,1.08979 0.154781,0.373675 0.519418,0.617317 0.92388,0.617317 -0.404462,0 -0.769099,-0.243642 -0.92388,-0.617317 -0.154781,-0.373674 -0.06922,-0.803792 0.216773,-1.08979 0.285998,-0.285998 0.716116,-0.371554 1.08979,-0.216773 0.373675,0.154781 0.617317,0.519418 0.617317,0.92388 0,0 38.5,0 38.5,0 0,-0.357266 0.190599,-0.687393 0.5,-0.866025 0.309401,-0.178633 0.690599,-0.178633 1,0 0.309401,0.178632 0.5,0.508759 0.5,0.866025 0,0.265216 -0.105357,0.51957 -0.292893,0.707107 C 70.76957,-94.355357 70.515216,-94.25 70.25,-94.25 c 0,0 0,38.5 0,38.5 0.265216,0 0.51957,0.105357 0.707107,0.292893 0.187536,0.187537 0.292893,0.441891 0.292893,0.707107 0,0.357266 -0.190599,0.687393 -0.5,0.866025 -0.309401,0.178633 -0.690599,0.178633 -1,0 -0.309401,-0.178632 -0.5,-0.508759 -0.5,-0.866025 0,0 -38.5,0 -38.5,0 0,0.404462 -0.243642,0.769099 -0.617317,0.92388 -0.373674,0.154781 -0.803792,0.06923 -1.08979,-0.216773 -0.285998,-0.285998 -0.371554,-0.716116 -0.216773,-1.08979 C 28.980901,-55.506358 29.345538,-55.75 29.75,-55.75 c 0,0 0,-38.5 0,-38.5"
         id="57" />
      <path
         style="fill:none;stroke:#000000;stroke-width:0.34999999;stroke-linecap:butt;stroke-linejoin:miter"
         inkscape:connector-curvature="0"
         id="path133"
         d="m -80.75,-45.25 c 0,-0.357266 0.190599,-0.687393 0.5,-0.866025 0.309401,-0.178633 0.690599,-0.178633 1,0 0.309401,0.178632 0.5,0.508759 0.5,0.866025 0,0.265216 -0.105357,0.51957 -0.292893,0.707107 -0.187537,0.187536 -0.441891,0.292893 -0.707107,0.292893 0,0 0,38.5 0,38.5 0.265216,0 0.51957,0.1053568 0.707107,0.2928932 0.187536,0.1875364 0.292893,0.4418903 0.292893,0.7071068 0,0.3572656 -0.190599,0.6873926 -0.5,0.8660254 -0.309401,0.1786328 -0.690599,0.1786328 -1,0 -0.309401,-0.1786328 -0.5,-0.5087598 -0.5,-0.8660254 0,0 -38.5,0 -38.5,0 0,0.4044622 -0.24364,0.7690985 -0.61732,0.9238795 -0.37367,0.154781 -0.80379,0.069225 -1.08979,-0.2167727 -0.28599,-0.285998 -0.37155,-0.7161158 -0.21677,-1.0897902 C -121.0191,-5.5063578 -120.65446,-5.75 -120.25,-5.75 c 0,0 0,-38.5 0,-38.5 -0.40446,0 -0.7691,-0.243642 -0.92388,-0.617317 -0.15478,-0.373674 -0.0692,-0.803792 0.21677,-1.08979 0.286,-0.285998 0.71612,-0.371554 1.08979,-0.216773 0.37368,0.154781 0.61732,0.519418 0.61732,0.92388 0,-0.404462 -0.24364,-0.769099 -0.61732,-0.92388 -0.37367,-0.154781 -0.80379,-0.06923 -1.08979,0.216773 -0.28599,0.285998 -0.37155,0.716116 -0.21677,1.08979 0.15478,0.373675 0.51942,0.617317 0.92388,0.617317 0,0 0,38.5 0,38.5 -0.40446,0 -0.7691,0.2436422 -0.92388,0.6173166 -0.15478,0.3736744 -0.0692,0.8037922 0.21677,1.0897902 0.286,0.285998 0.71612,0.3715537 1.08979,0.2167727 0.37368,-0.154781 0.61732,-0.5194173 0.61732,-0.9238795 0,0 38.5,0 38.5,0 0,0.3572656 0.190599,0.6873926 0.5,0.8660254 0.309401,0.1786328 0.690599,0.1786328 1,0 0.309401,-0.1786328 0.5,-0.5087598 0.5,-0.8660254 0,-0.2652165 -0.105357,-0.5195704 -0.292893,-0.7071068 C -79.23043,-5.6446432 -79.484784,-5.75 -79.75,-5.75 c 0,0 0,-38.5 0,-38.5 0.265216,0 0.51957,-0.105357 0.707107,-0.292893 0.187536,-0.187537 0.292893,-0.441891 0.292893,-0.707107 0,-0.357266 -0.190599,-0.687393 -0.5,-0.866025 -0.309401,-0.178633 -0.690599,-0.178633 -1,0 -0.309401,0.178632 -0.5,0.508759 -0.5,0.866025 0,0 -38.5,0 -38.5,0" />
      <path
         style="fill:none;stroke:#000000;stroke-width:0.34999999;stroke-linecap:butt;stroke-linejoin:miter"
         inkscape:connector-curvature="0"
         id="path145"
         d="m -121.17388,-94.867317 c -0.15478,-0.373674 -0.0692,-0.803792 0.21677,-1.08979 0.286,-0.285998 0.71612,-0.371554 1.08979,-0.216773 0.37368,0.154781 0.61732,0.519418 0.61732,0.92388 0,0 38.5,0 38.5,0 0,-0.357266 0.190599,-0.687393 0.5,-0.866025 0.309401,-0.178633 0.690599,-0.178633 1,0 0.309401,0.178632 0.5,0.508759 0.5,0.866025 0,0.265216 -0.105357,0.51957 -0.292893,0.707107 -0.187537,0.187536 -0.441891,0.292893 -0.707107,0.292893 0,0 0,38.5 0,38.5 0.265216,0 0.51957,0.105357 0.707107,0.292893 0.187536,0.187537 0.292893,0.441891 0.292893,0.707107 0,0.357266 -0.190599,0.687393 -0.5,0.866025 -0.309401,0.178633 -0.690599,0.178633 -1,0 -0.309401,-0.178632 -0.5,-0.508759 -0.5,-0.866025 0,0 -38.5,0 -38.5,0 0,0.404462 -0.24364,0.769099 -0.61732,0.92388 -0.37367,0.154781 -0.80379,0.06923 -1.08979,-0.216773 -0.28599,-0.285998 -0.37155,-0.716116 -0.21677,-1.08979 0.15478,-0.373675 0.51942,-0.617317 0.92388,-0.617317 0,0 0,-38.5 0,-38.5 0,0 0,38.5 0,38.5 -0.40446,0 -0.7691,0.243642 -0.92388,0.617317 -0.15478,0.373674 -0.0692,0.803792 0.21677,1.08979 0.286,0.285998 0.71612,0.371554 1.08979,0.216773 0.37368,-0.154781 0.61732,-0.519418 0.61732,-0.92388 0,0 38.5,0 38.5,0 0,0.357266 0.190599,0.687393 0.5,0.866025 0.309401,0.178633 0.690599,0.178633 1,0 0.309401,-0.178632 0.5,-0.508759 0.5,-0.866025 0,-0.265216 -0.105357,-0.51957 -0.292893,-0.707107 C -79.23043,-55.644643 -79.484784,-55.75 -79.75,-55.75 c 0,0 0,-38.5 0,-38.5 0.265216,0 0.51957,-0.105357 0.707107,-0.292893 0.187536,-0.187537 0.292893,-0.441891 0.292893,-0.707107 0,-0.357266 -0.190599,-0.687393 -0.5,-0.866025 -0.309401,-0.178633 -0.690599,-0.178633 -1,0 -0.309401,0.178632 -0.5,0.508759 -0.5,0.866025 0,0 -38.5,0 -38.5,0 0,-0.404462 -0.24364,-0.769099 -0.61732,-0.92388 -0.37367,-0.154781 -0.80379,-0.06923 -1.08979,0.216773 -0.28599,0.285998 -0.37155,0.716116 -0.21677,1.08979 0.15478,0.373675 0.51942,0.617317 0.92388,0.617317" />
      <path
         style="fill:none;stroke:#000000;stroke-width:0.34999999;stroke-linecap:butt;stroke-linejoin:miter"
         inkscape:connector-curvature="0"
         d="m -79.25,53.883975 c -0.309401,-0.178633 -0.690599,-0.178633 -1,0 -0.309401,0.178632 -0.5,0.508759 -0.5,0.866025 0,0 -38.5,0 -38.5,0 0,-0.404462 -0.24364,-0.769099 -0.61732,-0.92388 -0.37367,-0.154781 -0.80379,-0.06923 -1.08979,0.216773 -0.28599,0.285998 -0.37155,0.716116 -0.21677,1.08979 0.15478,0.373675 0.51942,0.617317 0.92388,0.617317 0,0 0,38.5 0,38.5 -0.40446,0 -0.7691,0.243642 -0.92388,0.617317 -0.15478,0.373674 -0.0692,0.803792 0.21677,1.08979 0.286,0.285998 0.71612,0.371554 1.08979,0.216773 0.37368,-0.154781 0.61732,-0.519418 0.61732,-0.92388 0,0 38.5,0 38.5,0 0,0.357266 0.190599,0.687393 0.5,0.866025 0.309401,0.178633 0.690599,0.178633 1,0 0.309401,-0.178632 0.5,-0.508759 0.5,-0.866025 0,-0.265216 -0.105357,-0.51957 -0.292893,-0.707107 C -79.23043,94.355357 -79.484784,94.25 -79.75,94.25 c 0,0 0,-38.5 0,-38.5 0.265216,0 0.51957,-0.105357 0.707107,-0.292893 C -78.855357,55.26957 -78.75,55.015216 -78.75,54.75 c 0,0.265216 -0.105357,0.51957 -0.292893,0.707107 C -79.23043,55.644643 -79.484784,55.75 -79.75,55.75 c 0,0 0,38.5 0,38.5 0.265216,0 0.51957,0.105357 0.707107,0.292893 0.187536,0.187537 0.292893,0.441891 0.292893,0.707107 0,0.357266 -0.190599,0.687393 -0.5,0.866025 -0.309401,0.178633 -0.690599,0.178633 -1,0 -0.309401,-0.178632 -0.5,-0.508759 -0.5,-0.866025 0,0 -38.5,0 -38.5,0 0,0.404462 -0.24364,0.769099 -0.61732,0.92388 -0.37367,0.154781 -0.80379,0.06923 -1.08979,-0.216773 -0.28599,-0.285998 -0.37155,-0.716116 -0.21677,-1.08979 0.15478,-0.373675 0.51942,-0.617317 0.92388,-0.617317 0,0 0,-38.5 0,-38.5 -0.40446,0 -0.7691,-0.243642 -0.92388,-0.617317 -0.15478,-0.373674 -0.0692,-0.803792 0.21677,-1.08979 0.286,-0.285998 0.71612,-0.371554 1.08979,-0.216773 0.37368,0.154781 0.61732,0.519418 0.61732,0.92388 0,0 38.5,0 38.5,0 0,-0.357266 0.190599,-0.687393 0.5,-0.866025 0.309401,-0.178633 0.690599,-0.178633 1,0 0.309401,0.178632 0.5,0.508759 0.5,0.866025"
         id="92" />
      <path
         style="fill:none;stroke:#000000;stroke-width:0.34999999;stroke-linecap:butt;stroke-linejoin:miter"
         inkscape:connector-curvature="0"
         id="path180"
         d="m -79.25,46.116025 c -0.309401,0.178633 -0.690599,0.178633 -1,0 -0.309401,-0.178632 -0.5,-0.508759 -0.5,-0.866025 0,0 -38.5,0 -38.5,0 0,0.404462 -0.24364,0.769099 -0.61732,0.92388 -0.37367,0.154781 -0.80379,0.06923 -1.08979,-0.216773 -0.28599,-0.285998 -0.37155,-0.716116 -0.21677,-1.08979 0.15478,-0.373675 0.51942,-0.617317 0.92388,-0.617317 0,0 0,-38.5 0,-38.5 -0.40446,0 -0.7691,-0.2436422 -0.92388,-0.6173166 -0.15478,-0.3736744 -0.0692,-0.8037922 0.21677,-1.0897902 0.286,-0.285998 0.71612,-0.3715537 1.08979,-0.2167727 0.37368,0.154781 0.61732,0.5194173 0.61732,0.9238795 0,0 38.5,0 38.5,0 0,-0.3572656 0.190599,-0.6873926 0.5,-0.8660254 0.309401,-0.1786328 0.690599,-0.1786328 1,0 0.309401,0.1786328 0.5,0.5087598 0.5,0.8660254 0,0.2652165 -0.105357,0.5195704 -0.292893,0.7071068 C -79.23043,5.6446432 -79.484784,5.75 -79.75,5.75 c 0,0 0,38.5 0,38.5 0.265216,0 0.51957,0.105357 0.707107,0.292893 0.187536,0.187537 0.292893,0.441891 0.292893,0.707107 0,-0.265216 -0.105357,-0.51957 -0.292893,-0.707107 C -79.23043,44.355357 -79.484784,44.25 -79.75,44.25 c 0,0 0,-38.5 0,-38.5 0.265216,0 0.51957,-0.1053568 0.707107,-0.2928932 C -78.855357,5.2695704 -78.75,5.0152165 -78.75,4.75 c 0,-0.3572656 -0.190599,-0.6873926 -0.5,-0.8660254 -0.309401,-0.1786328 -0.690599,-0.1786328 -1,0 -0.309401,0.1786328 -0.5,0.5087598 -0.5,0.8660254 0,0 -38.5,0 -38.5,0 0,-0.4044622 -0.24364,-0.7690985 -0.61732,-0.9238795 -0.37367,-0.154781 -0.80379,-0.069225 -1.08979,0.2167727 -0.28599,0.285998 -0.37155,0.7161158 -0.21677,1.0897902 C -121.0191,5.5063578 -120.65446,5.75 -120.25,5.75 c 0,0 0,38.5 0,38.5 -0.40446,0 -0.7691,0.243642 -0.92388,0.617317 -0.15478,0.373674 -0.0692,0.803792 0.21677,1.08979 0.286,0.285998 0.71612,0.371554 1.08979,0.216773 0.37368,-0.154781 0.61732,-0.519418 0.61732,-0.92388 0,0 38.5,0 38.5,0 0,0.357266 0.190599,0.687393 0.5,0.866025 0.309401,0.178633 0.690599,0.178633 1,0 0.309401,-0.178632 0.5,-0.508759 0.5,-0.866025" />
      <path
         style="fill:none;stroke:#000000;stroke-width:0.34999999;stroke-linecap:butt;stroke-linejoin:miter"
         inkscape:connector-curvature="0"
         id="path202"
         d="m 20.25,44.25 c 0.265216,0 0.51957,0.105357 0.707107,0.292893 C 21.144643,44.73043 21.25,44.984784 21.25,45.25 c 0,0.357266 -0.190599,0.687393 -0.5,0.866025 -0.309401,0.178633 -0.690599,0.178633 -1,0 -0.309401,-0.178632 -0.5,-0.508759 -0.5,-0.866025 0,0 -38.5,0 -38.5,0 0,0.404462 -0.243642,0.769099 -0.617317,0.92388 -0.373674,0.154781 -0.803792,0.06923 -1.08979,-0.216773 -0.285998,-0.285998 -0.371554,-0.716116 -0.216773,-1.08979 C -21.019099,44.493642 -20.654462,44.25 -20.25,44.25 c 0,0 0,-38.5 0,-38.5 -0.404462,0 -0.769099,-0.2436422 -0.92388,-0.6173166 -0.154781,-0.3736744 -0.06922,-0.8037922 0.216773,-1.0897902 0.285998,-0.285998 0.716116,-0.3715537 1.08979,-0.2167727 C -19.493642,3.9809015 -19.25,4.3455378 -19.25,4.75 c 0,0 38.5,0 38.5,0 0,-0.3572656 0.190599,-0.6873926 0.5,-0.8660254 0.309401,-0.1786328 0.690599,-0.1786328 1,0 0.309401,0.1786328 0.5,0.5087598 0.5,0.8660254 0,0.2652165 -0.105357,0.5195704 -0.292893,0.7071068 C 20.76957,5.6446432 20.515216,5.75 20.25,5.75 20.515216,5.75 20.76957,5.6446432 20.957107,5.4571068 21.144643,5.2695704 21.25,5.0152165 21.25,4.75 c 0,-0.3572656 -0.190599,-0.6873926 -0.5,-0.8660254 -0.309401,-0.1786328 -0.690599,-0.1786328 -1,0 -0.309401,0.1786328 -0.5,0.5087598 -0.5,0.8660254 0,0 -38.5,0 -38.5,0 0,-0.4044622 -0.243642,-0.7690985 -0.617317,-0.9238795 -0.373674,-0.154781 -0.803792,-0.069225 -1.08979,0.2167727 -0.285998,0.285998 -0.371554,0.7161158 -0.216773,1.0897902 C -21.019099,5.5063578 -20.654462,5.75 -20.25,5.75 c 0,0 0,38.5 0,38.5 -0.404462,0 -0.769099,0.243642 -0.92388,0.617317 -0.154781,0.373674 -0.06922,0.803792 0.216773,1.08979 0.285998,0.285998 0.716116,0.371554 1.08979,0.216773 C -19.493642,46.019099 -19.25,45.654462 -19.25,45.25 c 0,0 38.5,0 38.5,0 0,0.357266 0.190599,0.687393 0.5,0.866025 0.309401,0.178633 0.690599,0.178633 1,0 0.309401,-0.178632 0.5,-0.508759 0.5,-0.866025 0,-0.265216 -0.105357,-0.51957 -0.292893,-0.707107 C 20.76957,44.355357 20.515216,44.25 20.25,44.25 c 0,0 0,-38.5 0,-38.5" />
      <path
         style="fill:none;stroke:#000000;stroke-width:0.34999999;stroke-linecap:butt;stroke-linejoin:miter"
         inkscape:connector-curvature="0"
         id="path218"
         d="m -30.25,3.8839746 c 0.309401,-0.1786328 0.690599,-0.1786328 1,0 0.309401,0.1786328 0.5,0.5087598 0.5,0.8660254 0,0.2652165 -0.105357,0.5195704 -0.292893,0.7071068 C -29.23043,5.6446432 -29.484784,5.75 -29.75,5.75 c 0,0 0,38.5 0,38.5 0.265216,0 0.51957,0.105357 0.707107,0.292893 0.187536,0.187537 0.292893,0.441891 0.292893,0.707107 0,0.357266 -0.190599,0.687393 -0.5,0.866025 -0.309401,0.178633 -0.690599,0.178633 -1,0 -0.309401,-0.178632 -0.5,-0.508759 -0.5,-0.866025 0,0 -38.5,0 -38.5,0 0,0.404462 -0.243642,0.769099 -0.617317,0.92388 -0.373674,0.154781 -0.803792,0.06923 -1.08979,-0.216773 -0.285998,-0.285998 -0.371554,-0.716116 -0.216773,-1.08979 C -71.019099,44.493642 -70.654462,44.25 -70.25,44.25 c 0,0 0,-38.5 0,-38.5 -0.404462,0 -0.769099,-0.2436422 -0.92388,-0.6173166 -0.154781,-0.3736744 -0.06923,-0.8037922 0.216773,-1.0897902 0.285998,-0.285998 0.716116,-0.3715537 1.08979,-0.2167727 C -69.493642,3.9809015 -69.25,4.3455378 -69.25,4.75 c 0,0 38.5,0 38.5,0 0,0 -38.5,0 -38.5,0 0,-0.4044622 -0.243642,-0.7690985 -0.617317,-0.9238795 -0.373674,-0.154781 -0.803792,-0.069225 -1.08979,0.2167727 -0.285998,0.285998 -0.371554,0.7161158 -0.216773,1.0897902 C -71.019099,5.5063578 -70.654462,5.75 -70.25,5.75 c 0,0 0,38.5 0,38.5 -0.404462,0 -0.769099,0.243642 -0.92388,0.617317 -0.154781,0.373674 -0.06923,0.803792 0.216773,1.08979 0.285998,0.285998 0.716116,0.371554 1.08979,0.216773 C -69.493642,46.019099 -69.25,45.654462 -69.25,45.25 c 0,0 38.5,0 38.5,0 0,0.357266 0.190599,0.687393 0.5,0.866025 0.309401,0.178633 0.690599,0.178633 1,0 0.309401,-0.178632 0.5,-0.508759 0.5,-0.866025 0,-0.265216 -0.105357,-0.51957 -0.292893,-0.707107 C -29.23043,44.355357 -29.484784,44.25 -29.75,44.25 c 0,0 0,-38.5 0,-38.5 0.265216,0 0.51957,-0.1053568 0.707107,-0.2928932 C -28.855357,5.2695704 -28.75,5.0152165 -28.75,4.75 c 0,-0.3572656 -0.190599,-0.6873926 -0.5,-0.8660254 -0.309401,-0.1786328 -0.690599,-0.1786328 -1,0 -0.309401,0.1786328 -0.5,0.5087598 -0.5,0.8660254" />
      <path
         style="fill:none;stroke:#000000;stroke-width:0.34999999;stroke-linecap:butt;stroke-linejoin:miter"
         inkscape:connector-curvature="0"
         d="m 20.25,55.75 c 0.265216,0 0.51957,-0.105357 0.707107,-0.292893 C 21.144643,55.26957 21.25,55.015216 21.25,54.75 c 0,-0.357266 -0.190599,-0.687393 -0.5,-0.866025 -0.309401,-0.178633 -0.690599,-0.178633 -1,0 -0.309401,0.178632 -0.5,0.508759 -0.5,0.866025 0,0 -38.5,0 -38.5,0 0,-0.404462 -0.243642,-0.769099 -0.617317,-0.92388 -0.373674,-0.154781 -0.803792,-0.06923 -1.08979,0.216773 -0.285998,0.285998 -0.371554,0.716116 -0.216773,1.08979 0.154781,0.373675 0.519418,0.617317 0.92388,0.617317 0,0 0,38.5 0,38.5 -0.404462,0 -0.769099,0.243642 -0.92388,0.617317 -0.154781,0.373674 -0.06922,0.803792 0.216773,1.08979 0.285998,0.285998 0.716116,0.371554 1.08979,0.216773 C -19.493642,96.019099 -19.25,95.654462 -19.25,95.25 c 0,0 38.5,0 38.5,0 0,0.357266 0.190599,0.687393 0.5,0.866025 0.309401,0.178633 0.690599,0.178633 1,0 0.309401,-0.178632 0.5,-0.508759 0.5,-0.866025 0,-0.265216 -0.105357,-0.51957 -0.292893,-0.707107 C 20.76957,94.355357 20.515216,94.25 20.25,94.25 c 0.265216,0 0.51957,0.105357 0.707107,0.292893 C 21.144643,94.73043 21.25,94.984784 21.25,95.25 c 0,0.357266 -0.190599,0.687393 -0.5,0.866025 -0.309401,0.178633 -0.690599,0.178633 -1,0 -0.309401,-0.178632 -0.5,-0.508759 -0.5,-0.866025 0,0 -38.5,0 -38.5,0 0,0.404462 -0.243642,0.769099 -0.617317,0.92388 -0.373674,0.154781 -0.803792,0.06923 -1.08979,-0.216773 -0.285998,-0.285998 -0.371554,-0.716116 -0.216773,-1.08979 C -21.019099,94.493642 -20.654462,94.25 -20.25,94.25 c 0,0 0,-38.5 0,-38.5 -0.404462,0 -0.769099,-0.243642 -0.92388,-0.617317 -0.154781,-0.373674 -0.06922,-0.803792 0.216773,-1.08979 0.285998,-0.285998 0.716116,-0.371554 1.08979,-0.216773 0.373675,0.154781 0.617317,0.519418 0.617317,0.92388 0,0 38.5,0 38.5,0 0,-0.357266 0.190599,-0.687393 0.5,-0.866025 0.309401,-0.178633 0.690599,-0.178633 1,0 0.309401,0.178632 0.5,0.508759 0.5,0.866025 0,0.265216 -0.105357,0.51957 -0.292893,0.707107 C 20.76957,55.644643 20.515216,55.75 20.25,55.75 c 0,0 0,38.5 0,38.5"
         id="133" />
      <path
         style="fill:none;stroke:#000000;stroke-width:0.34999999;stroke-linecap:butt;stroke-linejoin:miter"
         inkscape:connector-curvature="0"
         d="m -71.17388,94.867317 c -0.154781,0.373674 -0.06923,0.803792 0.216773,1.08979 0.285998,0.285998 0.716116,0.371554 1.08979,0.216773 C -69.493642,96.019099 -69.25,95.654462 -69.25,95.25 c 0,0 38.5,0 38.5,0 0,0.357266 0.190599,0.687393 0.5,0.866025 0.309401,0.178633 0.690599,0.178633 1,0 0.309401,-0.178632 0.5,-0.508759 0.5,-0.866025 0,-0.265216 -0.105357,-0.51957 -0.292893,-0.707107 C -29.23043,94.355357 -29.484784,94.25 -29.75,94.25 c 0,0 0,-38.5 0,-38.5 0.265216,0 0.51957,-0.105357 0.707107,-0.292893 C -28.855357,55.26957 -28.75,55.015216 -28.75,54.75 c 0,-0.357266 -0.190599,-0.687393 -0.5,-0.866025 -0.309401,-0.178633 -0.690599,-0.178633 -1,0 -0.309401,0.178632 -0.5,0.508759 -0.5,0.866025 0,0 -38.5,0 -38.5,0 0,-0.404462 -0.243642,-0.769099 -0.617317,-0.92388 -0.373674,-0.154781 -0.803792,-0.06923 -1.08979,0.216773 -0.285998,0.285998 -0.371554,0.716116 -0.216773,1.08979 0.154781,0.373675 0.519418,0.617317 0.92388,0.617317 0,0 0,38.5 0,38.5 0,0 0,-38.5 0,-38.5 -0.404462,0 -0.769099,-0.243642 -0.92388,-0.617317 -0.154781,-0.373674 -0.06923,-0.803792 0.216773,-1.08979 0.285998,-0.285998 0.716116,-0.371554 1.08979,-0.216773 0.373675,0.154781 0.617317,0.519418 0.617317,0.92388 0,0 38.5,0 38.5,0 0,-0.357266 0.190599,-0.687393 0.5,-0.866025 0.309401,-0.178633 0.690599,-0.178633 1,0 0.309401,0.178632 0.5,0.508759 0.5,0.866025 0,0.265216 -0.105357,0.51957 -0.292893,0.707107 C -29.23043,55.644643 -29.484784,55.75 -29.75,55.75 c 0,0 0,38.5 0,38.5 0.265216,0 0.51957,0.105357 0.707107,0.292893 0.187536,0.187537 0.292893,0.441891 0.292893,0.707107 0,0.357266 -0.190599,0.687393 -0.5,0.866025 -0.309401,0.178633 -0.690599,0.178633 -1,0 -0.309401,-0.178632 -0.5,-0.508759 -0.5,-0.866025 0,0 -38.5,0 -38.5,0 0,0.404462 -0.243642,0.769099 -0.617317,0.92388 -0.373674,0.154781 -0.803792,0.06923 -1.08979,-0.216773 -0.285998,-0.285998 -0.371554,-0.716116 -0.216773,-1.08979 C -71.019099,94.493642 -70.654462,94.25 -70.25,94.25"
         id="136" />
      <path
         style="fill:none;stroke:#000000;stroke-width:0.34999999;stroke-linecap:butt;stroke-linejoin:miter"
         inkscape:connector-curvature="0"
         id="path264"
         d="m 28.82612,55.132683 c -0.154781,-0.373674 -0.06922,-0.803792 0.216773,-1.08979 0.285998,-0.285998 0.716116,-0.371554 1.08979,-0.216773 C 30.506358,53.980901 30.75,54.345538 30.75,54.75 c 0,0 38.5,0 38.5,0 0,-0.357266 0.190599,-0.687393 0.5,-0.866025 0.309401,-0.178633 0.690599,-0.178633 1,0 0.309401,0.178632 0.5,0.508759 0.5,0.866025 0,0.265216 -0.105357,0.51957 -0.292893,0.707107 C 70.76957,55.644643 70.515216,55.75 70.25,55.75 c 0,0 0,38.5 0,38.5 0.265216,0 0.51957,0.105357 0.707107,0.292893 C 71.144643,94.73043 71.25,94.984784 71.25,95.25 c 0,0.357266 -0.190599,0.687393 -0.5,0.866025 -0.309401,0.178633 -0.690599,0.178633 -1,0 -0.309401,-0.178632 -0.5,-0.508759 -0.5,-0.866025 0,0 -38.5,0 -38.5,0 0,0.404462 -0.243642,0.769099 -0.617317,0.92388 -0.373674,0.154781 -0.803792,0.06923 -1.08979,-0.216773 C 28.756895,95.671109 28.671339,95.240991 28.82612,94.867317 28.980901,94.493642 29.345538,94.25 29.75,94.25 c 0,0 0,-38.5 0,-38.5 0,0 0,38.5 0,38.5 -0.404462,0 -0.769099,0.243642 -0.92388,0.617317 -0.154781,0.373674 -0.06922,0.803792 0.216773,1.08979 0.285998,0.285998 0.716116,0.371554 1.08979,0.216773 C 30.506358,96.019099 30.75,95.654462 30.75,95.25 c 0,0 38.5,0 38.5,0 0,0.357266 0.190599,0.687393 0.5,0.866025 0.309401,0.178633 0.690599,0.178633 1,0 0.309401,-0.178632 0.5,-0.508759 0.5,-0.866025 0,-0.265216 -0.105357,-0.51957 -0.292893,-0.707107 C 70.76957,94.355357 70.515216,94.25 70.25,94.25 c 0,0 0,-38.5 0,-38.5 0.265216,0 0.51957,-0.105357 0.707107,-0.292893 C 71.144643,55.26957 71.25,55.015216 71.25,54.75 c 0,-0.357266 -0.190599,-0.687393 -0.5,-0.866025 -0.309401,-0.178633 -0.690599,-0.178633 -1,0 -0.309401,0.178632 -0.5,0.508759 -0.5,0.866025 0,0 -38.5,0 -38.5,0 0,-0.404462 -0.243642,-0.769099 -0.617317,-0.92388 -0.373674,-0.154781 -0.803792,-0.06923 -1.08979,0.216773 -0.285998,0.285998 -0.371554,0.716116 -0.216773,1.08979 C 28.980901,55.506358 29.345538,55.75 29.75,55.75" />
      <path
         style="fill:none;stroke:#000000;stroke-width:0.34999999;stroke-linecap:butt;stroke-linejoin:miter"
         inkscape:connector-curvature="0"
         id="path282"
         d="M 28.82612,5.1326834 C 28.671339,4.759009 28.756895,4.3288912 29.042893,4.0428932 29.328891,3.7568952 29.759009,3.6713395 30.132683,3.8261205 30.506358,3.9809015 30.75,4.3455378 30.75,4.75 c 0,0 38.5,0 38.5,0 0,-0.3572656 0.190599,-0.6873926 0.5,-0.8660254 0.309401,-0.1786328 0.690599,-0.1786328 1,0 0.309401,0.1786328 0.5,0.5087598 0.5,0.8660254 0,0.2652165 -0.105357,0.5195704 -0.292893,0.7071068 C 70.76957,5.6446432 70.515216,5.75 70.25,5.75 c 0,0 0,38.5 0,38.5 0.265216,0 0.51957,0.105357 0.707107,0.292893 C 71.144643,44.73043 71.25,44.984784 71.25,45.25 c 0,0.357266 -0.190599,0.687393 -0.5,0.866025 -0.309401,0.178633 -0.690599,0.178633 -1,0 -0.309401,-0.178632 -0.5,-0.508759 -0.5,-0.866025 0,0 -38.5,0 -38.5,0 0,0.404462 -0.243642,0.769099 -0.617317,0.92388 -0.373674,0.154781 -0.803792,0.06923 -1.08979,-0.216773 C 28.756895,45.671109 28.671339,45.240991 28.82612,44.867317 28.980901,44.493642 29.345538,44.25 29.75,44.25 c 0,0 0,-38.5 0,-38.5 0,0 0,38.5 0,38.5 -0.404462,0 -0.769099,0.243642 -0.92388,0.617317 -0.154781,0.373674 -0.06922,0.803792 0.216773,1.08979 0.285998,0.285998 0.716116,0.371554 1.08979,0.216773 C 30.506358,46.019099 30.75,45.654462 30.75,45.25 c 0,0 38.5,0 38.5,0 0,0.357266 0.190599,0.687393 0.5,0.866025 0.309401,0.178633 0.690599,0.178633 1,0 0.309401,-0.178632 0.5,-0.508759 0.5,-0.866025 0,-0.265216 -0.105357,-0.51957 -0.292893,-0.707107 C 70.76957,44.355357 70.515216,44.25 70.25,44.25 c 0,0 0,-38.5 0,-38.5 0.265216,0 0.51957,-0.1053568 0.707107,-0.2928932 C 71.144643,5.2695704 71.25,5.0152165 71.25,4.75 c 0,-0.3572656 -0.190599,-0.6873926 -0.5,-0.8660254 -0.309401,-0.1786328 -0.690599,-0.1786328 -1,0 -0.309401,0.1786328 -0.5,0.5087598 -0.5,0.8660254 0,0 -38.5,0 -38.5,0 0,-0.4044622 -0.243642,-0.7690985 -0.617317,-0.9238795 -0.373674,-0.154781 -0.803792,-0.069225 -1.08979,0.2167727 C 28.756895,4.3288912 28.671339,4.759009 28.82612,5.1326834 28.980901,5.5063578 29.345538,5.75 29.75,5.75" />
      <path
         style="fill:none;stroke:#000000;stroke-width:0.34999999;stroke-linecap:butt;stroke-linejoin:miter"
         inkscape:connector-curvature="0"
         id="path295"
         d="m 80.132683,96.17388 c -0.373674,0.154781 -0.803792,0.06923 -1.08979,-0.216773 C 78.756895,95.671109 78.671339,95.240991 78.82612,94.867317 78.980901,94.493642 79.345538,94.25 79.75,94.25 c 0,0 0,-38.5 0,-38.5 -0.404462,0 -0.769099,-0.243642 -0.92388,-0.617317 -0.154781,-0.373674 -0.06923,-0.803792 0.216773,-1.08979 0.285998,-0.285998 0.716116,-0.371554 1.08979,-0.216773 C 80.506358,53.980901 80.75,54.345538 80.75,54.75 c 0,0 38.5,0 38.5,0 0,-0.357266 0.1906,-0.687393 0.5,-0.866025 0.3094,-0.178633 0.6906,-0.178633 1,0 0.3094,0.178632 0.5,0.508759 0.5,0.866025 0,0.265216 -0.10536,0.51957 -0.29289,0.707107 C 120.76957,55.644643 120.51522,55.75 120.25,55.75 c 0,0 0,38.5 0,38.5 0.26522,0 0.51957,0.105357 0.70711,0.292893 0.18753,0.187537 0.29289,0.441891 0.29289,0.707107 0,0.357266 -0.1906,0.687393 -0.5,0.866025 -0.3094,0.178633 -0.6906,0.178633 -1,0 -0.3094,-0.178632 -0.5,-0.508759 -0.5,-0.866025 0,0 -38.5,0 -38.5,0 0,0 38.5,0 38.5,0 0,0.357266 0.1906,0.687393 0.5,0.866025 0.3094,0.178633 0.6906,0.178633 1,0 0.3094,-0.178632 0.5,-0.508759 0.5,-0.866025 0,-0.265216 -0.10536,-0.51957 -0.29289,-0.707107 C 120.76957,94.355357 120.51522,94.25 120.25,94.25 c 0,0 0,-38.5 0,-38.5 0.26522,0 0.51957,-0.105357 0.70711,-0.292893 C 121.14464,55.26957 121.25,55.015216 121.25,54.75 c 0,-0.357266 -0.1906,-0.687393 -0.5,-0.866025 -0.3094,-0.178633 -0.6906,-0.178633 -1,0 -0.3094,0.178632 -0.5,0.508759 -0.5,0.866025 0,0 -38.5,0 -38.5,0 0,-0.404462 -0.243642,-0.769099 -0.617317,-0.92388 -0.373674,-0.154781 -0.803792,-0.06923 -1.08979,0.216773 -0.285998,0.285998 -0.371554,0.716116 -0.216773,1.08979 C 78.980901,55.506358 79.345538,55.75 79.75,55.75 c 0,0 0,38.5 0,38.5 -0.404462,0 -0.769099,0.243642 -0.92388,0.617317 -0.154781,0.373674 -0.06923,0.803792 0.216773,1.08979 0.285998,0.285998 0.716116,0.371554 1.08979,0.216773 C 80.506358,96.019099 80.75,95.654462 80.75,95.25" />
      <path
         style="fill:none;stroke:#000000;stroke-width:0.34999999;stroke-linecap:butt;stroke-linejoin:miter"
         inkscape:connector-curvature="0"
         id="path303"
         d="m 80.132683,46.17388 c -0.373674,0.154781 -0.803792,0.06923 -1.08979,-0.216773 C 78.756895,45.671109 78.671339,45.240991 78.82612,44.867317 78.980901,44.493642 79.345538,44.25 79.75,44.25 c 0,0 0,-38.5 0,-38.5 -0.404462,0 -0.769099,-0.2436422 -0.92388,-0.6173166 C 78.671339,4.759009 78.756895,4.3288912 79.042893,4.0428932 79.328891,3.7568952 79.759009,3.6713395 80.132683,3.8261205 80.506358,3.9809015 80.75,4.3455378 80.75,4.75 c 0,0 38.5,0 38.5,0 0,-0.3572656 0.1906,-0.6873926 0.5,-0.8660254 0.3094,-0.1786328 0.6906,-0.1786328 1,0 0.3094,0.1786328 0.5,0.5087598 0.5,0.8660254 0,0.2652165 -0.10536,0.5195704 -0.29289,0.7071068 C 120.76957,5.6446432 120.51522,5.75 120.25,5.75 c 0,0 0,38.5 0,38.5 0.26522,0 0.51957,0.105357 0.70711,0.292893 0.18753,0.187537 0.29289,0.441891 0.29289,0.707107 0,0.357266 -0.1906,0.687393 -0.5,0.866025 -0.3094,0.178633 -0.6906,0.178633 -1,0 -0.3094,-0.178632 -0.5,-0.508759 -0.5,-0.866025 0,0 -38.5,0 -38.5,0 0,0 38.5,0 38.5,0 0,0.357266 0.1906,0.687393 0.5,0.866025 0.3094,0.178633 0.6906,0.178633 1,0 0.3094,-0.178632 0.5,-0.508759 0.5,-0.866025 0,-0.265216 -0.10536,-0.51957 -0.29289,-0.707107 C 120.76957,44.355357 120.51522,44.25 120.25,44.25 c 0,0 0,-38.5 0,-38.5 0.26522,0 0.51957,-0.1053568 0.70711,-0.2928932 C 121.14464,5.2695704 121.25,5.0152165 121.25,4.75 c 0,-0.3572656 -0.1906,-0.6873926 -0.5,-0.8660254 -0.3094,-0.1786328 -0.6906,-0.1786328 -1,0 -0.3094,0.1786328 -0.5,0.5087598 -0.5,0.8660254 0,0 -38.5,0 -38.5,0 0,-0.4044622 -0.243642,-0.7690985 -0.617317,-0.9238795 -0.373674,-0.154781 -0.803792,-0.069225 -1.08979,0.2167727 C 78.756895,4.3288912 78.671339,4.759009 78.82612,5.1326834 78.980901,5.5063578 79.345538,5.75 79.75,5.75 c 0,0 0,38.5 0,38.5 -0.404462,0 -0.769099,0.243642 -0.92388,0.617317 -0.154781,0.373674 -0.06923,0.803792 0.216773,1.08979 0.285998,0.285998 0.716116,0.371554 1.08979,0.216773 C 80.506358,46.019099 80.75,45.654462 80.75,45.25" />
      <path
         style="fill:none;stroke:#000000;stroke-width:0.34999999;stroke-linecap:butt;stroke-linejoin:miter"
         inkscape:connector-curvature="0"
         id="path325"
         d="m 120.95711,-94.542893 c -0.18754,0.187536 -0.44189,0.292893 -0.70711,0.292893 0,0 0,38.5 0,38.5 0.26522,0 0.51957,0.105357 0.70711,0.292893 0.18753,0.187537 0.29289,0.441891 0.29289,0.707107 0,0.357266 -0.1906,0.687393 -0.5,0.866025 -0.3094,0.178633 -0.6906,0.178633 -1,0 -0.3094,-0.178632 -0.5,-0.508759 -0.5,-0.866025 0,0 -38.5,0 -38.5,0 0,0.404462 -0.243642,0.769099 -0.617317,0.92388 -0.373674,0.154781 -0.803792,0.06923 -1.08979,-0.216773 -0.285998,-0.285998 -0.371554,-0.716116 -0.216773,-1.08979 C 78.980901,-55.506358 79.345538,-55.75 79.75,-55.75 c 0,0 0,-38.5 0,-38.5 -0.404462,0 -0.769099,-0.243642 -0.92388,-0.617317 -0.154781,-0.373674 -0.06923,-0.803792 0.216773,-1.08979 0.285998,-0.285998 0.716116,-0.371554 1.08979,-0.216773 0.373675,0.154781 0.617317,0.519418 0.617317,0.92388 0,0 38.5,0 38.5,0 0,-0.357266 0.1906,-0.687393 0.5,-0.866025 0.3094,-0.178633 0.6906,-0.178633 1,0 0.3094,0.178632 0.5,0.508759 0.5,0.866025 0,-0.357266 -0.1906,-0.687393 -0.5,-0.866025 -0.3094,-0.178633 -0.6906,-0.178633 -1,0 -0.3094,0.178632 -0.5,0.508759 -0.5,0.866025 0,0 -38.5,0 -38.5,0 0,-0.404462 -0.243642,-0.769099 -0.617317,-0.92388 -0.373674,-0.154781 -0.803792,-0.06923 -1.08979,0.216773 -0.285998,0.285998 -0.371554,0.716116 -0.216773,1.08979 0.154781,0.373675 0.519418,0.617317 0.92388,0.617317 0,0 0,38.5 0,38.5 -0.404462,0 -0.769099,0.243642 -0.92388,0.617317 -0.154781,0.373674 -0.06923,0.803792 0.216773,1.08979 0.285998,0.285998 0.716116,0.371554 1.08979,0.216773 C 80.506358,-53.980901 80.75,-54.345538 80.75,-54.75 c 0,0 38.5,0 38.5,0 0,0.357266 0.1906,0.687393 0.5,0.866025 0.3094,0.178633 0.6906,0.178633 1,0 0.3094,-0.178632 0.5,-0.508759 0.5,-0.866025 0,-0.265216 -0.10536,-0.51957 -0.29289,-0.707107 C 120.76957,-55.644643 120.51522,-55.75 120.25,-55.75 c 0,0 0,-38.5 0,-38.5 0.26522,0 0.51957,-0.105357 0.70711,-0.292893 0.18753,-0.187537 0.29289,-0.441891 0.29289,-0.707107" />
      <path
         style="fill:none;stroke:#000000;stroke-width:0.34999999;stroke-linecap:butt;stroke-linejoin:miter"
         inkscape:connector-curvature="0"
         id="path337"
         d="m 80.75,-4.75 c 0,0.4044622 -0.243642,0.7690985 -0.617317,0.9238795 -0.373674,0.154781 -0.803792,0.069225 -1.08979,-0.2167727 C 78.756895,-4.3288912 78.671339,-4.759009 78.82612,-5.1326834 78.980901,-5.5063578 79.345538,-5.75 79.75,-5.75 c 0,0 0,-38.5 0,-38.5 -0.404462,0 -0.769099,-0.243642 -0.92388,-0.617317 -0.154781,-0.373674 -0.06923,-0.803792 0.216773,-1.08979 0.285998,-0.285998 0.716116,-0.371554 1.08979,-0.216773 0.373675,0.154781 0.617317,0.519418 0.617317,0.92388 0,0 38.5,0 38.5,0 0,-0.357266 0.1906,-0.687393 0.5,-0.866025 0.3094,-0.178633 0.6906,-0.178633 1,0 0.3094,0.178632 0.5,0.508759 0.5,0.866025 0,0.265216 -0.10536,0.51957 -0.29289,0.707107 -0.18754,0.187536 -0.44189,0.292893 -0.70711,0.292893 0,0 0,38.5 0,38.5 0.26522,0 0.51957,0.1053568 0.70711,0.2928932 0.18753,0.1875364 0.29289,0.4418903 0.29289,0.7071068 0,0.3572656 -0.1906,0.6873926 -0.5,0.8660254 -0.3094,0.1786328 -0.6906,0.1786328 -1,0 -0.3094,-0.1786328 -0.5,-0.5087598 -0.5,-0.8660254 0,0.3572656 0.1906,0.6873926 0.5,0.8660254 0.3094,0.1786328 0.6906,0.1786328 1,0 0.3094,-0.1786328 0.5,-0.5087598 0.5,-0.8660254 0,-0.2652165 -0.10536,-0.5195704 -0.29289,-0.7071068 C 120.76957,-5.6446432 120.51522,-5.75 120.25,-5.75 c 0,0 0,-38.5 0,-38.5 0.26522,0 0.51957,-0.105357 0.70711,-0.292893 0.18753,-0.187537 0.29289,-0.441891 0.29289,-0.707107 0,-0.357266 -0.1906,-0.687393 -0.5,-0.866025 -0.3094,-0.178633 -0.6906,-0.178633 -1,0 -0.3094,0.178632 -0.5,0.508759 -0.5,0.866025 0,0 -38.5,0 -38.5,0 0,-0.404462 -0.243642,-0.769099 -0.617317,-0.92388 -0.373674,-0.154781 -0.803792,-0.06923 -1.08979,0.216773 -0.285998,0.285998 -0.371554,0.716116 -0.216773,1.08979 0.154781,0.373675 0.519418,0.617317 0.92388,0.617317 0,0 0,38.5 0,38.5 -0.404462,0 -0.769099,0.2436422 -0.92388,0.6173166 -0.154781,0.3736744 -0.06923,0.8037922 0.216773,1.0897902 0.285998,0.285998 0.716116,0.3715537 1.08979,0.2167727 C 80.506358,-3.9809015 80.75,-4.3455378 80.75,-4.75 c 0,0 38.5,0 38.5,0" />
      <path
         inkscape:connector-curvature="0"
         id="circle348"
         d="M -128.58579,103.58579 C -128.21071,103.96086 -129.46957,103 -130,103 c -0.53043,0 -1.03914,0.21071 -1.41421,0.58579 C -131.78929,103.96086 -132,104.46957 -132,105 c 0,0.53043 0.21071,1.03914 0.58579,1.41421 0.37507,0.37508 0.88378,0.58579 1.41421,0.58579 0.53043,0 1.03914,-0.21071 1.41421,-0.58579 C -128.21071,106.03914 -128,105.53043 -128,105 c 0,0.53043 -0.21071,1.03914 -0.58579,1.41421 C -128.96086,106.78929 -129.46957,107 -130,107 c -0.53043,0 -1.03914,-0.21071 -1.41421,-0.58579 C -131.78929,106.03914 -132,105.53043 -132,105 c 0,-0.53043 0.21071,-1.03914 0.58579,-1.41421 C -131.03914,103.21071 -130.53043,103 -130,103 c 0.53043,0 1.03914,0.21071 1.41421,0.58579 0.37508,0.37507 0.58579,0.88378 0.58579,1.41421 0,0 0,0 0,0 0,-0.53043 -0.96086,-1.78929 -0.58579,-1.41421"
         style="fill:none;stroke:#000000;stroke-width:0.34999999;stroke-linecap:butt;stroke-linejoin:miter"
         transform="scale(1,-1)" />
      <path
         inkscape:connector-curvature="0"
         id="circle350"
         d="M -128.58579,-106.41421 C -128.21071,-106.03914 -129.46957,-107 -130,-107 c -0.53043,0 -1.03914,0.21071 -1.41421,0.58579 -0.37508,0.37507 -0.58579,0.88378 -0.58579,1.41421 0,0.53043 0.21071,1.03914 0.58579,1.41421 0.37507,0.37508 0.88378,0.58579 1.41421,0.58579 0.53043,0 1.03914,-0.21071 1.41421,-0.58579 0.37508,-0.37507 0.58579,-0.88378 0.58579,-1.41421 0,0.53043 -0.21071,1.03914 -0.58579,1.41421 -0.37507,0.37508 -0.88378,0.58579 -1.41421,0.58579 -0.53043,0 -1.03914,-0.21071 -1.41421,-0.58579 C -131.78929,-103.96086 -132,-104.46957 -132,-105 c 0,-0.53043 0.21071,-1.03914 0.58579,-1.41421 0.37507,-0.37508 0.88378,-0.58579 1.41421,-0.58579 0.53043,0 1.03914,0.21071 1.41421,0.58579 0.37508,0.37507 0.58579,0.88378 0.58579,1.41421 0,0 0,0 0,0 0,-0.53043 -0.96086,-1.78929 -0.58579,-1.41421"
         style="fill:none;stroke:#000000;stroke-width:0.34999999;stroke-linecap:butt;stroke-linejoin:miter"
         transform="scale(1,-1)" />
      <path
         inkscape:connector-curvature="0"
         id="circle352"
         d="M 131.41421,-106.41421 C 131.78929,-106.03914 130.53043,-107 130,-107 c -0.53043,0 -1.03914,0.21071 -1.41421,0.58579 C 128.21071,-106.03914 128,-105.53043 128,-105 c 0,0.53043 0.21071,1.03914 0.58579,1.41421 0.37507,0.37508 0.88378,0.58579 1.41421,0.58579 0.53043,0 1.03914,-0.21071 1.41421,-0.58579 C 131.78929,-103.96086 132,-104.46957 132,-105 c 0,0.53043 -0.21071,1.03914 -0.58579,1.41421 C 131.03914,-103.21071 130.53043,-103 130,-103 c -0.53043,0 -1.03914,-0.21071 -1.41421,-0.58579 C 128.21071,-103.96086 128,-104.46957 128,-105 c 0,-0.53043 0.21071,-1.03914 0.58579,-1.41421 C 128.96086,-106.78929 129.46957,-107 130,-107 c 0.53043,0 1.03914,0.21071 1.41421,0.58579 0.37508,0.37507 0.58579,0.88378 0.58579,1.41421 0,0 0,0 0,0 0,-0.53043 -0.96086,-1.78929 -0.58579,-1.41421"
         style="fill:none;stroke:#000000;stroke-width:0.34999999;stroke-linecap:butt;stroke-linejoin:miter"
         transform="scale(1,-1)" />
      <path
         inkscape:connector-curvature="0"
         id="circle354"
         d="M 131.41421,103.58579 C 131.78929,103.96086 130.53043,103 130,103 c -0.53043,0 -1.03914,0.21071 -1.41421,0.58579 C 128.21071,103.96086 128,104.46957 128,105 c 0,0.53043 0.21071,1.03914 0.58579,1.41421 C 128.96086,106.78929 129.46957,107 130,107 c 0.53043,0 1.03914,-0.21071 1.41421,-0.58579 C 131.78929,106.03914 132,105.53043 132,105 c 0,0.53043 -0.21071,1.03914 -0.58579,1.41421 C 131.03914,106.78929 130.53043,107 130,107 c -0.53043,0 -1.03914,-0.21071 -1.41421,-0.58579 C 128.21071,106.03914 128,105.53043 128,105 c 0,-0.53043 0.21071,-1.03914 0.58579,-1.41421 C 128.96086,103.21071 129.46957,103 130,103 c 0.53043,0 1.03914,0.21071 1.41421,0.58579 C 131.78929,103.96086 132,104.46957 132,105 c 0,0 0,0 0,0 0,-0.53043 -0.96086,-1.78929 -0.58579,-1.41421"
         style="fill:none;stroke:#000000;stroke-width:0.34999999;stroke-linecap:butt;stroke-linejoin:miter"
         transform="scale(1,-1)" />
    </g>
  </g>
  <g
     inkscape:groupmode="layer"
     id="layer2"
     inkscape:label="Border"
     style="display:inline">
    <path
       style="fill:none;stroke:#000000;stroke-width:0.1;stroke-linecap:butt;stroke-linejoin:miter;stroke-miterlimit:4;stroke-dasharray:none"
       inkscape:connector-curvature="0"
       d="m 90.000001,265 0,-230.000001 279.999999,0 L 370,265 Z"
       id="1-9"
       sodipodi:nodetypes="ccccc" />
    <circle
       style="opacity:1;fill:none;fill-opacity:1;fill-rule:nonzero;stroke:#000000;stroke-width:0.10526317;stroke-linecap:round;stroke-linejoin:round;stroke-miterlimit:4;stroke-dasharray:none;stroke-dashoffset:0;stroke-opacity:1"
       id="path6934"
       cx="100"
       cy="44.999992"
       r="2" />
    <circle
       style="display:inline;opacity:1;fill:none;fill-opacity:1;fill-rule:nonzero;stroke:#000000;stroke-width:0.10526318;stroke-linecap:round;stroke-linejoin:round;stroke-miterlimit:4;stroke-dasharray:none;stroke-dashoffset:0;stroke-opacity:1"
       id="path6934-0"
       cx="360"
       cy="44.999992"
       r="2" />
    <circle
       style="display:inline;opacity:1;fill:none;fill-opacity:1;fill-rule:nonzero;stroke:#000000;stroke-width:0.10526318;stroke-linecap:round;stroke-linejoin:round;stroke-miterlimit:4;stroke-dasharray:none;stroke-dashoffset:0;stroke-opacity:1"
       id="path6934-9"
       cx="360"
       cy="254.99998"
       r="2" />
    <circle
       style="display:inline;opacity:1;fill:none;fill-opacity:1;fill-rule:nonzero;stroke:#000000;stroke-width:0.10526318;stroke-linecap:round;stroke-linejoin:round;stroke-miterlimit:4;stroke-dasharray:none;stroke-dashoffset:0;stroke-opacity:1"
       id="path6934-8"
       cx="100"
       cy="254.99998"
       r="2" />
  </g>
  <g
     inkscape:groupmode="layer"
     id="layer3"
     inkscape:label="Pockets" />
</svg>
