<?xml version="1.0" encoding="UTF-8" standalone="no"?>

<svg
	xmlns="http://www.w3.org/2000/svg" version="1.1"
	xmlns:freecad="http://www.freecadweb.org/wiki/index.php?title=Svg_Namespace"
	width="594mm"
	height="420mm"
	viewBox="0 0 594 420">
	<!-- Working space 20 10 584 410 -->
	<!-- Title block 404 350 584 410 -->
	<g>
		<rect
			id="drawing-border"
			style="fill:none;stroke:#000000;stroke-width:0.35;stroke-linecap:miter;stroke-miterlimit:4"
			width="564"
			height="400"
			x="20"
			y="10" />
			<!-- width-30, height-20 -->
		<g
			transform="translate(384,123)">
			<!-- A4 Portrait based for other formats width-210, height-297 -->
			<!--        page       rect   translation
			               w    h    rw   rh   tx   ty
			        A4-P  210  297  180  277    0    0
			        A3-L  420  297  390  277  210    0
			        A2-L  594  420  564  400  384  123
			        A1-L  841  594  811  574  631  297
			        A0-L 1189  841 1159  821  979  544
			-->
			<g
				id="titleblock-structure"
				style="fill:none;stroke:#000000;stroke-width:0.35;stroke-linecap:miter;stroke-miterlimit:4">
				<rect width="180" height="60" x="20" y="227" />
				<path d="m 20,239 h 180" />
				<path d="m 80,227 v 12" />
				<path d="m 140,239 v 48" />
				<path d="m 160,239 v 12" />
				<path d="m 180,239 v 12" />
				<path d="m 140,251 h 60" />
				<path d="m 140,275 h 60" />
				<path d="m 180,275 v 12" />
			</g>
			<g
				id="titleblock-text-non-editable"
				style="font-size:3px;text-anchor:start;fill:#000000;font-family:osifont"
				xml:space="preserve">
				<text x="21" y="230">Created by:</text>
				<text x="81" y="230">Title:</text>
				<text x="21" y="242">Supplementary information:</text>
				<text x="141" y="242">Size:</text>
				<text x="161" y="242">Sheet:</text>
				<text x="181" y="242">Scale:</text>
				<text x="141" y="254">Part number:</text>
				<text x="141" y="266">Drawing number:</text>
				<text x="141" y="278">Date:</text>
				<text x="181" y="278">Revision:</text>
			</g>
			<g
				id="titleblock-text-editable"
				style="font-size:5px;text-anchor:middle;fill:#000000;font-family:osifont"
				xml:space="preserve">
				<text freecad:editable="AUTHOR NAME" x="50" y="236"><tspan>Stefan Krüger</tspan></text>
				<text freecad:editable="DRAWING TITLE" x="140" y="236"><tspan>ACME Aria G25 SMT Tray 5x4</tspan></text>
				<text freecad:editable="SI-1" x="80" y="248"><tspan>licensed as CC-BY</tspan></text>
				<text freecad:editable="SI-2" x="80" y="255"><tspan></tspan></text>
				<text freecad:editable="FreeCAD DRAWING" x="80" y="262"><tspan></tspan></text>
				<text freecad:editable="SI-4" x="80" y="269"><tspan></tspan></text>
				<text freecad:editable="SI-5" x="80" y="276"><tspan></tspan></text>
				<text freecad:editable="SI-6" x="80" y="283"><tspan></tspan></text>
				<text freecad:editable="FC-SI" x="150" y="248"><tspan>A2</tspan></text>
				<text freecad:editable="FC-SH" x="170" y="248"><tspan>1 / 1</tspan></text>
				<text freecad:editable="FC-SC" x="190" y="248"><tspan>1:1</tspan></text>
				<text freecad:editable="PN" x="170" y="260"><tspan>-</tspan></text>
				<text freecad:editable="DN" x="170" y="272"><tspan>-</tspan></text>
				<text freecad:editable="FC-DATE" x="160" y="284"><tspan>12/05/2016</tspan></text>
				<text freecad:editable="FC-REV" x="190" y="284"><tspan>REV A</tspan></text>
			</g>
			<!-- Set display:none to hide FreeCAD Logo -->
			<g
				style="display:inline"
				id="freecad-logo"
				transform="translate(128.5,276)"
				fill-rule="evenodd"
				stroke="#000"
				stroke-width="0.35"
				fill="none">
					<path d="m0.1524 0.15254v8.8549h1.9744v-3.4652h1.396v-1.3661h-1.396v-1.4745h3.4391v-2.5441l-5.4135-0.005z"/>
					<path d="m7.7927 3.4504-0.50715-0.176-0.48387-1.2366-0.76115 0.04-0.34718 1.2787-0.4859 0.23269-1.2119-0.53015-0.51188 0.56882 0.65892 1.1485-0.18006 0.50567-1.2366 0.48387 0.044064 0.76263 1.2787 0.34718 0.23269 0.4859-0.53421 1.2104 0.56882 0.51188 1.1485-0.65891 0.50973 0.18155 0.4798 1.2351 0.7667-0.04258 0.34311-1.2802 0.4859-0.23269 1.2145 0.5357 0.51188-0.56882-0.65891-1.1485 0.17748-0.51122 1.2351-0.4798-0.03851-0.76521-1.2802-0.34311-0.23269-0.4859 0.53163-1.216-0.56881-0.51184zm-0.5715 1.2244 0.23576 0.13679 0.20426 0.18519 0.16353 0.22101 0.11763 0.24572 0.06916 0.26489 0.01146 0.27146-0.03921 0.27139-0.08948 0.25764-0.14234 0.23834-0.17964 0.20167-0.22101 0.16353-0.24572 0.11763-0.26489 0.06916-0.27295 0.01553-0.2719-0.04-0.2576-0.089-0.2383-0.143-0.2002-0.183-0.165-0.217-0.1177-0.246-0.0676-0.269-0.0156-0.273 0.039206-0.2714 0.089484-0.25764 0.14085-0.23427 0.18113-0.20574 0.22101-0.16352 0.24572-0.11763 0.26895-0.06768 0.27147-0.01146 0.27139 0.03921 0.25764 0.08948z"/>
			</g>
		</g>
	</g>
<g id="Ortho_0_0"
   transform="rotate(0,302,180) translate(302,180) scale(1,1)"
  >
<g   stroke="rgb(0, 0, 0)"
   stroke-width="0.35"
   stroke-linecap="butt"
   stroke-linejoin="miter"
   fill="none"
   transform="scale(1,-1)"
  >
<path id= "1" d=" M -140 115 L 140 115 " />
<path id= "2" d=" M -140 -115 L -140 115 " />
<path id= "3" d=" M 140 115 L 140 -115 " />
<path id= "4" d=" M 140 -115 L -140 -115 " />
<path d="M-29.75 94.25 A1 1 0 0 1 -28.75 95.25" /><path id= "6" d=" M -29.75 94.25 L -29.75 55.75 " />
<path d="M-28.75 95.25 A1 1 0 0 1 -30.75 95.25" /><path d="M-28.75 54.75 A1 1 0 0 1 -29.75 55.75" /><path id= "9" d=" M -69.25 95.25 L -30.75 95.25 " />
<path d="M-30.75 54.75 A1 1 0 1 1 -28.75 54.75" /><path d="M-69.25 95.25 A1 1 0 1 1 -70.25 94.25" /><path id= "12" d=" M -30.75 54.75 L -69.25 54.75 " />
<path id= "13" d=" M -70.25 55.75 L -70.25 94.25 " />
<path d="M-70.25 55.75 A1 1 0 1 1 -69.25 54.75" /><path d="M20.25 94.25 A1 1 0 0 1 21.25 95.25" /><path id= "16" d=" M 20.25 94.25 L 20.25 55.75 " />
<path d="M21.25 95.25 A1 1 0 0 1 19.25 95.25" /><path d="M21.25 54.75 A1 1 0 0 1 20.25 55.75" /><path id= "19" d=" M -19.25 95.25 L 19.25 95.25 " />
<path d="M19.25 54.75 A1 1 0 1 1 21.25 54.75" /><path d="M-19.25 95.25 A1 1 0 1 1 -20.25 94.25" /><path id= "22" d=" M 19.25 54.75 L -19.25 54.75 " />
<path id= "23" d=" M -20.25 55.75 L -20.25 94.25 " />
<path d="M-20.25 55.75 A1 1 0 1 1 -19.25 54.75" /><path d="M-69.25 45.25 A1 1 0 1 1 -70.25 44.25" /><path id= "26" d=" M -69.25 45.25 L -30.75 45.25 " />
<path id= "27" d=" M -70.25 5.75 L -70.25 44.25 " />
<path d="M-28.75 45.25 A1 1 0 0 1 -30.75 45.25" /><path d="M-70.25 5.75 A1 1 0 1 1 -69.25 4.75" /><path d="M-29.75 44.25 A1 1 0 0 1 -28.75 45.25" /><path id= "31" d=" M -30.75 4.75 L -69.25 4.75 " />
<path id= "32" d=" M -29.75 44.25 L -29.75 5.75 " />
<path d="M-30.75 4.75 A1 1 0 1 1 -28.75 4.75" /><path d="M-28.75 4.75 A1 1 0 0 1 -29.75 5.75" /><path d="M70.25 44.25 A1 1 0 0 1 71.25 45.25" /><path id= "36" d=" M 70.25 44.25 L 70.25 5.75 " />
<path d="M71.25 45.25 A1 1 0 0 1 69.25 45.25" /><path d="M71.25 4.75 A1 1 0 0 1 70.25 5.75" /><path id= "39" d=" M 30.75 45.25 L 69.25 45.25 " />
<path d="M69.25 4.75 A1 1 0 1 1 71.25 4.75" /><path d="M30.75 45.25 A1 1 0 1 1 29.75 44.25" /><path id= "42" d=" M 69.25 4.75 L 30.75 4.75 " />
<path id= "43" d=" M 29.75 5.75 L 29.75 44.25 " />
<path d="M29.75 5.75 A1 1 0 1 1 30.75 4.75" /><path d="M-19.25 45.25 A1 1 0 1 1 -20.25 44.25" /><path id= "46" d=" M -19.25 45.25 L 19.25 45.25 " />
<path id= "47" d=" M -20.25 5.75 L -20.25 44.25 " />
<path d="M21.25 45.25 A1 1 0 0 1 19.25 45.25" /><path d="M-20.25 5.75 A1 1 0 1 1 -19.25 4.75" /><path d="M20.25 44.25 A1 1 0 0 1 21.25 45.25" /><path id= "51" d=" M 19.25 4.75 L -19.25 4.75 " />
<path id= "52" d=" M 20.25 44.25 L 20.25 5.75 " />
<path d="M19.25 4.75 A1 1 0 1 1 21.25 4.75" /><path d="M21.25 4.75 A1 1 0 0 1 20.25 5.75" /><path d="M29.75 55.75 A1 1 0 1 1 30.75 54.75" /><path id= "56" d=" M 29.75 55.75 L 29.75 94.25 " />
<path id= "57" d=" M 69.25 54.75 L 30.75 54.75 " />
<path d="M30.75 95.25 A1 1 0 1 1 29.75 94.25" /><path d="M69.25 54.75 A1 1 0 1 1 71.25 54.75" /><path id= "60" d=" M 30.75 95.25 L 69.25 95.25 " />
<path d="M71.25 54.75 A1 1 0 0 1 70.25 55.75" /><path d="M71.25 95.25 A1 1 0 0 1 69.25 95.25" /><path id= "63" d=" M 70.25 94.25 L 70.25 55.75 " />
<path d="M70.25 94.25 A1 1 0 0 1 71.25 95.25" /><path d="M-120.25 5.75 A1 1 0 1 1 -119.25 4.75" /><path id= "66" d=" M -120.25 5.75 L -120.25 44.25 " />
<path id= "67" d=" M -80.75 4.75 L -119.25 4.75 " />
<path d="M-119.25 45.25 A1 1 0 1 1 -120.25 44.25" /><path d="M-80.75 4.75 A1 1 0 1 1 -78.75 4.75" /><path id= "70" d=" M -119.25 45.25 L -80.75 45.25 " />
<path d="M-78.75 4.75 A1 1 0 0 1 -79.75 5.75" /><path d="M-78.75 45.25 A1 1 0 0 1 -80.75 45.25" /><path id= "73" d=" M -79.75 44.25 L -79.75 5.75 " />
<path d="M-79.75 44.25 A1 1 0 0 1 -78.75 45.25" /><path id= "75" d=" M -80.75 54.75 L -119.25 54.75 " />
<path d="M-80.75 54.75 A1 1 0 1 1 -78.75 54.75" /><path d="M-120.25 55.75 A1 1 0 1 1 -119.25 54.75" /><path d="M-78.75 54.75 A1 1 0 0 1 -79.75 55.75" /><path id= "79" d=" M -120.25 55.75 L -120.25 94.25 " />
<path id= "80" d=" M -79.75 94.25 L -79.75 55.75 " />
<path d="M-119.25 95.25 A1 1 0 1 1 -120.25 94.25" /><path d="M-79.75 94.25 A1 1 0 0 1 -78.75 95.25" /><path id= "83" d=" M -119.25 95.25 L -80.75 95.25 " />
<path d="M-78.75 95.25 A1 1 0 0 1 -80.75 95.25" /><path d="M-119.25 -54.75 A1 1 0 1 1 -120.25 -55.75" /><path id= "86" d=" M -119.25 -54.75 L -80.75 -54.75 " />
<path id= "87" d=" M -120.25 -94.25 L -120.25 -55.75 " />
<path d="M-78.75 -54.75 A1 1 0 0 1 -80.75 -54.75" /><path d="M-120.25 -94.25 A1 1 0 1 1 -119.25 -95.25" /><path d="M-79.75 -55.75 A1 1 0 0 1 -78.75 -54.75" /><path id= "91" d=" M -80.75 -95.25 L -119.25 -95.25 " />
<path id= "92" d=" M -79.75 -55.75 L -79.75 -94.25 " />
<path d="M-80.75 -95.25 A1 1 0 1 1 -78.75 -95.25" /><path d="M-78.75 -95.25 A1 1 0 0 1 -79.75 -94.25" /><path d="M-79.75 -5.75 A1 1 0 0 1 -78.75 -4.75" /><path id= "96" d=" M -79.75 -5.75 L -79.75 -44.25 " />
<path d="M-78.75 -4.75 A1 1 0 0 1 -80.75 -4.75" /><path d="M-78.75 -45.25 A1 1 0 0 1 -79.75 -44.25" /><path id= "99" d=" M -119.25 -4.75 L -80.75 -4.75 " />
<path d="M-80.75 -45.25 A1 1 0 1 1 -78.75 -45.25" /><path d="M-119.25 -4.75 A1 1 0 1 1 -120.25 -5.75" /><path id= "102" d=" M -80.75 -45.25 L -119.25 -45.25 " />
<path id= "103" d=" M -120.25 -44.25 L -120.25 -5.75 " />
<path d="M-120.25 -44.25 A1 1 0 1 1 -119.25 -45.25" /><path id= "105" d=" M 19.25 -45.25 L -19.25 -45.25 " />
<path d="M19.25 -45.25 A1 1 0 1 1 21.25 -45.25" /><path d="M-20.25 -44.25 A1 1 0 1 1 -19.25 -45.25" /><path d="M21.25 -45.25 A1 1 0 0 1 20.25 -44.25" /><path id= "109" d=" M -20.25 -44.25 L -20.25 -5.75 " />
<path id= "110" d=" M 20.25 -5.75 L 20.25 -44.25 " />
<path d="M-19.25 -4.75 A1 1 0 1 1 -20.25 -5.75" /><path d="M20.25 -5.75 A1 1 0 0 1 21.25 -4.75" /><path id= "113" d=" M -19.25 -4.75 L 19.25 -4.75 " />
<path d="M21.25 -4.75 A1 1 0 0 1 19.25 -4.75" /><path d="M-69.25 -4.75 A1 1 0 1 1 -70.25 -5.75" /><path id= "116" d=" M -69.25 -4.75 L -30.75 -4.75 " />
<path id= "117" d=" M -70.25 -44.25 L -70.25 -5.75 " />
<path d="M-28.75 -4.75 A1 1 0 0 1 -30.75 -4.75" /><path d="M-70.25 -44.25 A1 1 0 1 1 -69.25 -45.25" /><path d="M-29.75 -5.75 A1 1 0 0 1 -28.75 -4.75" /><path id= "121" d=" M -30.75 -45.25 L -69.25 -45.25 " />
<path id= "122" d=" M -29.75 -5.75 L -29.75 -44.25 " />
<path d="M-30.75 -45.25 A1 1 0 1 1 -28.75 -45.25" /><path d="M-28.75 -45.25 A1 1 0 0 1 -29.75 -44.25" /><path d="M-20.25 -94.25 A1 1 0 1 1 -19.25 -95.25" /><path id= "126" d=" M -20.25 -94.25 L -20.25 -55.75 " />
<path id= "127" d=" M 19.25 -95.25 L -19.25 -95.25 " />
<path d="M-19.25 -54.75 A1 1 0 1 1 -20.25 -55.75" /><path d="M19.25 -95.25 A1 1 0 1 1 21.25 -95.25" /><path id= "130" d=" M -19.25 -54.75 L 19.25 -54.75 " />
<path d="M21.25 -95.25 A1 1 0 0 1 20.25 -94.25" /><path d="M21.25 -54.75 A1 1 0 0 1 19.25 -54.75" /><path id= "133" d=" M 20.25 -55.75 L 20.25 -94.25 " />
<path d="M20.25 -55.75 A1 1 0 0 1 21.25 -54.75" /><path d="M-29.75 -55.75 A1 1 0 0 1 -28.75 -54.75" /><path id= "136" d=" M -29.75 -55.75 L -29.75 -94.25 " />
<path d="M-28.75 -54.75 A1 1 0 0 1 -30.75 -54.75" /><path d="M-28.75 -95.25 A1 1 0 0 1 -29.75 -94.25" /><path id= "139" d=" M -69.25 -54.75 L -30.75 -54.75 " />
<path d="M-30.75 -95.25 A1 1 0 1 1 -28.75 -95.25" /><path d="M-69.25 -54.75 A1 1 0 1 1 -70.25 -55.75" /><path id= "142" d=" M -30.75 -95.25 L -69.25 -95.25 " />
<path id= "143" d=" M -70.25 -94.25 L -70.25 -55.75 " />
<path d="M-70.25 -94.25 A1 1 0 1 1 -69.25 -95.25" /><path d="M30.75 -54.75 A1 1 0 1 1 29.75 -55.75" /><path id= "146" d=" M 30.75 -54.75 L 69.25 -54.75 " />
<path id= "147" d=" M 29.75 -94.25 L 29.75 -55.75 " />
<path d="M71.25 -54.75 A1 1 0 0 1 69.25 -54.75" /><path d="M29.75 -94.25 A1 1 0 1 1 30.75 -95.25" /><path d="M70.25 -55.75 A1 1 0 0 1 71.25 -54.75" /><path id= "151" d=" M 69.25 -95.25 L 30.75 -95.25 " />
<path id= "152" d=" M 70.25 -55.75 L 70.25 -94.25 " />
<path d="M69.25 -95.25 A1 1 0 1 1 71.25 -95.25" /><path d="M71.25 -95.25 A1 1 0 0 1 70.25 -94.25" /><path id= "155" d=" M 69.25 -45.25 L 30.75 -45.25 " />
<path d="M69.25 -45.25 A1 1 0 1 1 71.25 -45.25" /><path d="M29.75 -44.25 A1 1 0 1 1 30.75 -45.25" /><path d="M71.25 -45.25 A1 1 0 0 1 70.25 -44.25" /><path id= "159" d=" M 29.75 -44.25 L 29.75 -5.75 " />
<path id= "160" d=" M 70.25 -5.75 L 70.25 -44.25 " />
<path d="M30.75 -4.75 A1 1 0 1 1 29.75 -5.75" /><path d="M70.25 -5.75 A1 1 0 0 1 71.25 -4.75" /><path id= "163" d=" M 30.75 -4.75 L 69.25 -4.75 " />
<path d="M71.25 -4.75 A1 1 0 0 1 69.25 -4.75" /><path d="M79.75 -94.25 A1 1 0 1 1 80.75 -95.25" /><path id= "166" d=" M 79.75 -94.25 L 79.75 -55.75 " />
<path id= "167" d=" M 119.25 -95.25 L 80.75 -95.25 " />
<path d="M80.75 -54.75 A1 1 0 1 1 79.75 -55.75" /><path d="M119.25 -95.25 A1 1 0 1 1 121.25 -95.25" /><path id= "170" d=" M 80.75 -54.75 L 119.25 -54.75 " />
<path d="M121.25 -95.25 A1 1 0 0 1 120.25 -94.25" /><path d="M121.25 -54.75 A1 1 0 0 1 119.25 -54.75" /><path id= "173" d=" M 120.25 -55.75 L 120.25 -94.25 " />
<path d="M120.25 -55.75 A1 1 0 0 1 121.25 -54.75" /><path d="M120.25 -5.75 A1 1 0 0 1 121.25 -4.75" /><path id= "176" d=" M 120.25 -5.75 L 120.25 -44.25 " />
<path d="M121.25 -4.75 A1 1 0 0 1 119.25 -4.75" /><path d="M121.25 -45.25 A1 1 0 0 1 120.25 -44.25" /><path id= "179" d=" M 80.75 -4.75 L 119.25 -4.75 " />
<path d="M119.25 -45.25 A1 1 0 1 1 121.25 -45.25" /><path d="M80.75 -4.75 A1 1 0 1 1 79.75 -5.75" /><path id= "182" d=" M 119.25 -45.25 L 80.75 -45.25 " />
<path id= "183" d=" M 79.75 -44.25 L 79.75 -5.75 " />
<path d="M79.75 -44.25 A1 1 0 1 1 80.75 -45.25" /><path id= "185" d=" M 119.25 54.75 L 80.75 54.75 " />
<path d="M119.25 54.75 A1 1 0 1 1 121.25 54.75" /><path d="M79.75 55.75 A1 1 0 1 1 80.75 54.75" /><path d="M121.25 54.75 A1 1 0 0 1 120.25 55.75" /><path id= "189" d=" M 79.75 55.75 L 79.75 94.25 " />
<path id= "190" d=" M 120.25 94.25 L 120.25 55.75 " />
<path d="M80.75 95.25 A1 1 0 1 1 79.75 94.25" /><path d="M120.25 94.25 A1 1 0 0 1 121.25 95.25" /><path id= "193" d=" M 80.75 95.25 L 119.25 95.25 " />
<path d="M121.25 95.25 A1 1 0 0 1 119.25 95.25" /><path d="M120.25 44.25 A1 1 0 0 1 121.25 45.25" /><path id= "196" d=" M 120.25 44.25 L 120.25 5.75 " />
<path d="M121.25 45.25 A1 1 0 0 1 119.25 45.25" /><path d="M121.25 4.75 A1 1 0 0 1 120.25 5.75" /><path id= "199" d=" M 80.75 45.25 L 119.25 45.25 " />
<path d="M119.25 4.75 A1 1 0 1 1 121.25 4.75" /><path d="M80.75 45.25 A1 1 0 1 1 79.75 44.25" /><path id= "202" d=" M 119.25 4.75 L 80.75 4.75 " />
<path id= "203" d=" M 79.75 5.75 L 79.75 44.25 " />
<path d="M79.75 5.75 A1 1 0 1 1 80.75 4.75" /><circle cx ="-130" cy ="105" r ="2" /><circle cx ="-130" cy ="-105" r ="2" /><circle cx ="130" cy ="-105" r ="2" /><circle cx ="130" cy ="105" r ="2" /></g>
</g>



<g> 
  <line x1="162.000000" y1="63.000000" x2="162.000000" y2="51.726565" style="stroke:rgb(0,0,255);stroke-width:0.50" />
<line x1="442.000000" y1="63.000000" x2="442.000000" y2="51.726565" style="stroke:rgb(0,0,255);stroke-width:0.50" />
<line x1="162.000000" y1="52.726565" x2="442.000000" y2="52.726565" style="stroke:rgb(0,0,255);stroke-width:0.50" /> 
  <polygon points="442.000000,52.726565 439.000000,51.726565 438.000000,52.726565 439.000000,53.726565" style="fill:rgb(0,0,255);stroke:rgb(0,0,255);stroke-width:0" /><polygon points="162.000000,52.726565 165.000000,53.726565 166.000000,52.726565 165.000000,51.726565" style="fill:rgb(0,0,255);stroke:rgb(0,0,255);stroke-width:0" /> 
  <text x="302.000000" y="50.726565" font-family="inherit" font-size="3.6" fill="rgb(0,0,255)" text-anchor="middle" transform="rotate(0.000000 302.000000,50.726565)" >280</text> </g>


<g> 
  <line x1="444.000000" y1="65.000000" x2="464.076788" y2="65.000000" style="stroke:rgb(0,0,255);stroke-width:0.50" />
<line x1="444.000000" y1="295.000000" x2="464.076788" y2="295.000000" style="stroke:rgb(0,0,255);stroke-width:0.50" />
<line x1="463.076788" y1="65.000000" x2="463.076788" y2="295.000000" style="stroke:rgb(0,0,255);stroke-width:0.50" /> 
  <polygon points="463.076788,295.000000 464.076788,292.000000 463.076788,291.000000 462.076788,292.000000" style="fill:rgb(0,0,255);stroke:rgb(0,0,255);stroke-width:0" /><polygon points="463.076788,65.000000 462.076788,68.000000 463.076788,69.000000 464.076788,68.000000" style="fill:rgb(0,0,255);stroke:rgb(0,0,255);stroke-width:0" /> 
  <text x="461.076788" y="180.000000" font-family="inherit" font-size="3.6" fill="rgb(0,0,255)" text-anchor="middle" transform="rotate(-90.000000 461.076788,180.000000)" >230</text> </g>


<g> 
  <line x1="422.250000" y1="276.250000" x2="422.250000" y2="288.038877" style="stroke:rgb(0,0,255);stroke-width:0.50" />
<line x1="372.250000" y1="276.250000" x2="372.250000" y2="288.038877" style="stroke:rgb(0,0,255);stroke-width:0.50" />
<line x1="422.250000" y1="287.038877" x2="372.250000" y2="287.038877" style="stroke:rgb(0,0,255);stroke-width:0.50" /> 
  <polygon points="372.250000,287.038877 375.250000,288.038877 376.250000,287.038877 375.250000,286.038877" style="fill:rgb(0,0,255);stroke:rgb(0,0,255);stroke-width:0" /><polygon points="422.250000,287.038877 419.250000,286.038877 418.250000,287.038877 419.250000,288.038877" style="fill:rgb(0,0,255);stroke:rgb(0,0,255);stroke-width:0" /> 
  <text x="397.250000" y="285.038877" font-family="inherit" font-size="3.6" fill="rgb(0,0,255)" text-anchor="middle" transform="rotate(0.000000 397.250000,285.038877)" >50</text> </g>


<g> 
  <line x1="423.250000" y1="275.250000" x2="436.181100" y2="275.250000" style="stroke:rgb(0,0,255);stroke-width:0.50" />
<line x1="423.250000" y1="225.250000" x2="436.181100" y2="225.250000" style="stroke:rgb(0,0,255);stroke-width:0.50" />
<line x1="435.181100" y1="275.250000" x2="435.181100" y2="225.250000" style="stroke:rgb(0,0,255);stroke-width:0.50" /> 
  <polygon points="435.181100,225.250000 434.181100,228.250000 435.181100,229.250000 436.181100,228.250000" style="fill:rgb(0,0,255);stroke:rgb(0,0,255);stroke-width:0" /><polygon points="435.181100,275.250000 436.181100,272.250000 435.181100,271.250000 434.181100,272.250000" style="fill:rgb(0,0,255);stroke:rgb(0,0,255);stroke-width:0" /> 
  <text x="433.181100" y="250.250000" font-family="inherit" font-size="3.6" fill="rgb(0,0,255)" text-anchor="middle" transform="rotate(-90.000000 433.181100,250.250000)" >50</text> </g>


<g> 
  <line x1="160.000000" y1="295.000000" x2="149.868325" y2="295.000000" style="stroke:rgb(0,0,255);stroke-width:0.50" />
<line x1="179.750000" y1="275.250000" x2="149.868325" y2="275.250000" style="stroke:rgb(0,0,255);stroke-width:0.50" />
<line x1="150.868325" y1="295.000000" x2="150.868325" y2="275.250000" style="stroke:rgb(0,0,255);stroke-width:0.50" /> 
  <polygon points="150.868325,275.250000 149.868325,278.250000 150.868325,279.250000 151.868325,278.250000" style="fill:rgb(0,0,255);stroke:rgb(0,0,255);stroke-width:0" /><polygon points="150.868325,295.000000 151.868325,292.000000 150.868325,291.000000 149.868325,292.000000" style="fill:rgb(0,0,255);stroke:rgb(0,0,255);stroke-width:0" /> 
  <text x="148.868325" y="285.125000" font-family="inherit" font-size="3.6" fill="rgb(0,0,255)" text-anchor="middle" transform="rotate(-90.000000 148.868325,285.125000)" >19.75</text> </g>


<g> 
  <line x1="162.000000" y1="297.000000" x2="162.000000" y2="307.871643" style="stroke:rgb(0,0,255);stroke-width:0.50" />
<line x1="181.750000" y1="277.250000" x2="181.750000" y2="307.871643" style="stroke:rgb(0,0,255);stroke-width:0.50" />
<line x1="162.000000" y1="306.871643" x2="181.750000" y2="306.871643" style="stroke:rgb(0,0,255);stroke-width:0.50" /> 
  <polygon points="181.750000,306.871643 178.750000,305.871643 177.750000,306.871643 178.750000,307.871643" style="fill:rgb(0,0,255);stroke:rgb(0,0,255);stroke-width:0" /><polygon points="162.000000,306.871643 165.000000,307.871643 166.000000,306.871643 165.000000,305.871643" style="fill:rgb(0,0,255);stroke:rgb(0,0,255);stroke-width:0" /> 
  <text x="171.875000" y="304.871643" font-family="inherit" font-size="3.6" fill="rgb(0,0,255)" text-anchor="middle" transform="rotate(0.000000 171.875000,304.871643)" >19.75</text> </g>


</svg>

